<svg xmlns="http://www.w3.org/2000/svg" width="20" height="21" viewBox="0 0 20 21" fill="none">
<path d="M10.0001 2.16666C5.40008 2.16666 1.66675 5.89999 1.66675 10.5C1.66675 15.1 5.40008 18.8333 10.0001 18.8333C14.6001 18.8333 18.3334 15.1 18.3334 10.5C18.3334 5.89999 14.6001 2.16666 10.0001 2.16666ZM6.12508 15.9167C7.21675 15.1333 8.55008 14.6667 10.0001 14.6667C11.4501 14.6667 12.7834 15.1333 13.8751 15.9167C12.7834 16.7 11.4501 17.1667 10.0001 17.1667C8.55008 17.1667 7.21675 16.7 6.12508 15.9167ZM15.1167 14.7667C13.7084 13.6667 11.9334 13 10.0001 13C8.06675 13 6.29175 13.6667 4.88341 14.7667C3.91675 13.6083 3.33341 12.125 3.33341 10.5C3.33341 6.81666 6.31675 3.83332 10.0001 3.83332C13.6834 3.83332 16.6667 6.81666 16.6667 10.5C16.6667 12.125 16.0834 13.6083 15.1167 14.7667Z" fill="black"/>
<path d="M9.99992 5.5C8.39159 5.5 7.08325 6.80833 7.08325 8.41667C7.08325 10.025 8.39159 11.3333 9.99992 11.3333C11.6083 11.3333 12.9166 10.025 12.9166 8.41667C12.9166 6.80833 11.6083 5.5 9.99992 5.5ZM9.99992 9.66667C9.30825 9.66667 8.74992 9.10833 8.74992 8.41667C8.74992 7.725 9.30825 7.16667 9.99992 7.16667C10.6916 7.16667 11.2499 7.725 11.2499 8.41667C11.2499 9.10833 10.6916 9.66667 9.99992 9.66667Z" fill="black"/>
</svg>