<svg xmlns="http://www.w3.org/2000/svg" width="204" height="69" viewBox="0 0 204 69" fill="none">
<path d="M85.7058 30.3253C85.2777 24.2489 83.7296 19.8012 81.1688 17.3104C78.328 14.5323 74.005 14.3681 70.9419 16.9273C68.7269 18.7748 66.9154 22.333 66.1084 26.4249C65.2768 30.64 65.2768 36.1826 66.1084 40.4935C66.6436 43.258 67.36 45.2697 68.4716 47.1036C69.8056 49.2932 71.5512 50.7028 73.5521 51.1818C74.2685 51.3597 76.5247 51.3597 77.2575 51.1818C77.6034 51.0997 78.2127 50.8807 78.5997 50.6891C82.2228 48.9511 84.693 44.3254 85.5411 37.7017C85.747 36.1005 85.8376 32.1865 85.7058 30.3253ZM78.2292 45.8992C77.8422 47.1172 77.1258 48.2394 76.5412 48.5268C74.2932 49.6354 72.6793 46.0772 72.0535 38.6049C71.8559 36.1963 71.8559 29.6136 72.0535 26.8629C72.4982 20.855 73.6098 17.8168 75.3637 17.8031C76.1542 17.8031 76.5906 18.1179 77.2164 19.158C78.6903 21.6213 79.3902 26.3428 79.3821 33.7466C79.3737 39.6587 79.0197 43.3811 78.2292 45.8992ZM55.9803 6.17053H58.5741C61.5549 6.17053 62.0407 6.28001 63.0947 7.1285C64.6263 8.37388 65.7379 10.8372 66.7178 15.1345C67.113 16.8725 67.113 16.8725 67.9941 16.4346L68.5787 16.1335L68.521 9.82453C68.4881 6.34844 68.4469 3.26922 68.414 2.96814L68.3646 2.42073L57.0014 2.37967C50.7516 2.3523 45.5147 2.36599 45.3665 2.40704L45.0947 2.48915L45.1194 3.61136L45.1441 4.73356L46.0087 4.91147C47.1286 5.13044 47.8038 5.66417 48.199 6.62214C49.0966 8.79812 49.2612 11.7542 49.253 25.8091C49.253 40.7809 49.0636 44.4212 48.199 46.3098C47.7544 47.2815 47.3921 47.5962 46.3793 47.911C45.0618 48.3216 45.103 48.2668 45.103 49.4027C45.103 50.0322 45.1359 50.3744 45.2018 50.4154C45.35 50.5112 59.8834 50.5249 60.0398 50.4291C60.2374 50.3059 60.2292 48.5132 60.0233 48.3489C59.941 48.2805 59.4552 48.1163 58.9364 47.9931C58.4177 47.8699 57.8413 47.651 57.6601 47.5141C56.705 46.8299 56.178 44.9276 55.9803 41.4789C55.8404 39.0018 55.7251 34.4583 55.7251 31.0916V27.9987L56.6144 28.0398C58.5 28.1356 59.4717 28.2998 59.8669 28.5872C60.7232 29.2167 61.4067 30.9685 61.769 33.4045L61.9584 34.7046L62.6336 34.7456L63.3088 34.7867V18.3368L62.6336 18.3779L61.9584 18.419L61.7608 19.7191C61.382 22.2372 60.7562 23.7836 59.8504 24.4816C59.4799 24.769 59.2164 24.8511 58.3271 24.9332C57.7342 24.988 56.9108 25.0427 56.4909 25.0427L55.7333 25.0564V20.9781C55.7333 16.8999 55.8651 8.22334 55.9474 6.88217L55.9803 6.17053ZM100.552 15.066C99.5969 15.066 99.0782 15.2439 98.3042 15.8324C96.8961 16.9136 95.8339 18.6653 94.887 21.4982L94.5905 22.3877L94.6317 20.8139C94.6564 19.9517 94.6894 18.3368 94.7058 17.2283L94.747 15.2029H94.5411C94.2776 15.2029 86.1258 17.9126 85.8787 18.0768C85.7223 18.1863 85.6976 18.3095 85.6976 18.9527C85.6976 19.6233 85.7141 19.7191 85.8787 19.7738C85.9776 19.8149 86.3563 19.9244 86.7104 20.0475C87.435 20.2802 87.6491 20.4581 87.9455 21.115C88.4972 22.3193 88.6043 24.4542 88.6043 33.4729C88.596 40.8493 88.5055 44.517 88.2996 45.6666C88.0443 47.0762 87.5832 47.7878 86.7845 48.0479C86.5293 48.13 86.1834 48.2394 86.027 48.2942L85.7388 48.39L85.7141 49.3343C85.6976 50.0049 85.7223 50.3196 85.7964 50.3881C85.854 50.4565 88.6454 50.4839 91.9968 50.4702L98.0901 50.4428L98.1148 49.3753C98.1312 48.7869 98.1065 48.3079 98.0736 48.3079C97.6043 48.3079 96.1468 47.9794 95.9245 47.8152C95.241 47.3362 94.9034 46.3098 94.7635 44.2296C94.5988 41.7799 94.4917 35.7173 94.5411 30.7358C94.5905 25.7133 94.5905 25.6859 94.7799 25.3575C95.2246 24.5637 96.3362 23.9615 97.3408 23.9479C98.1477 23.9479 98.9711 24.29 99.8522 24.988C100.272 25.3301 100.667 25.5764 100.717 25.5354C100.824 25.4669 102.825 16.6809 102.825 16.2704C102.825 15.6819 101.688 15.066 100.552 15.066ZM159.089 35.1699C158.397 32.8707 157.121 31.2969 154.453 29.4357C152.271 27.9166 151.176 26.8765 150.509 25.6585C149.966 24.6732 149.809 23.8794 149.859 22.4014C149.908 21.0466 150.106 20.2254 150.624 19.3222C151.283 18.1589 152.189 17.7484 153.276 18.1179C155.054 18.7474 156.199 20.7865 157.179 25.1248C157.533 26.6713 157.574 26.7123 158.2 26.3291L158.595 26.0828L158.579 24.3037C158.57 23.332 158.537 21.2655 158.513 19.7328L158.463 16.9409L158.167 16.7357C156.536 15.5861 153.432 14.8744 151.415 15.1892C149.117 15.5313 147.429 16.7493 146.128 18.9801C144.836 21.1971 144.251 23.811 144.358 26.9039C144.44 29.4631 144.902 31.2969 145.848 32.9118C146.73 34.4035 147.471 35.1152 149.587 36.4974C153.004 38.7144 153.91 40.0282 153.902 42.7653C153.893 45.0781 153.16 46.7614 151.81 47.5552C151.332 47.8426 150.114 47.8289 149.463 47.5552C147.767 46.8162 146.466 44.3665 145.354 39.8229L145.066 38.6597L144.729 38.687C144.547 38.7007 144.292 38.7965 144.169 38.8923L143.938 39.0702L143.963 41.0546C143.971 42.1494 144.004 44.4486 144.037 46.1593L144.086 49.2795L144.465 49.5532C145.239 50.1143 147.578 50.9628 149.043 51.2229C149.224 51.2502 150.221 51.2639 151.267 51.2502C153.078 51.2229 153.202 51.1955 154.116 50.7986C156.8 49.6354 158.537 47.1446 159.303 43.3674C159.542 42.2042 159.575 41.8621 159.608 40.1377C159.665 37.8659 159.542 36.6753 159.089 35.1699ZM116.263 15.805C115.777 15.6408 115.341 15.5998 114.394 15.6545C112.978 15.7366 111.998 16.0924 110.935 16.8999C110.581 17.1736 110.277 17.3926 110.252 17.3926C110.227 17.3926 110.236 13.8207 110.26 9.45502C110.301 3.31028 110.285 1.51739 110.211 1.51739C109.939 1.5038 101.532 4.17246 101.441 4.29563C101.376 4.39142 101.343 4.67882 101.359 5.13044C101.384 5.9105 101.334 5.84208 102.355 6.22527C102.66 6.33475 103.022 6.5674 103.154 6.71794C103.5 7.1285 103.78 8.00437 103.978 9.24974C104.134 10.2351 104.15 10.9467 104.225 17.6526C104.299 24.4953 104.282 31.5296 104.167 44.4212L104.118 49.7722L104.719 50.0049C105.591 50.3333 108.086 51.0313 108.902 51.1681C110.104 51.3734 112.895 51.346 113.784 51.1134C117.646 50.1417 120.553 46.4193 121.912 40.7125C122.274 39.2071 122.62 36.8669 122.735 35.1425C122.875 33.1171 122.801 29.0662 122.587 27.4376C121.78 21.2108 119.433 16.8862 116.263 15.805ZM116.337 36.6205C115.967 41.3967 115.028 45.256 113.776 47.1309C113.274 47.8699 112.813 48.2668 112.212 48.4584C111.775 48.5953 111.652 48.5953 110.861 48.4995C110.532 48.4584 110.458 48.39 110.384 48.1026C110.277 47.6373 110.153 31.598 110.203 25.1932L110.244 20.1981L110.787 19.9244C111.15 19.7464 111.578 19.6506 112.08 19.6506C112.78 19.6506 112.87 19.678 113.455 20.1707C114.871 21.334 115.843 24.2216 116.296 28.6146C116.469 30.2431 116.494 34.6772 116.337 36.6205ZM138.339 16.4483C136.074 14.5597 132.583 14.6965 130.031 16.7767C127.61 18.7337 125.946 22.0045 125.016 26.6302C124.53 29.0388 124.382 30.9685 124.431 34.0887C124.464 36.0594 124.514 37.0858 124.637 37.9891C125.592 45.0644 128.515 49.8817 132.6 51.1134C133.497 51.3871 135.539 51.3871 136.453 51.1271C137.754 50.7439 139.245 49.7859 140.192 48.7321C141.344 47.432 142.522 45.4887 142.522 44.8865C142.522 44.517 142.127 43.6685 141.954 43.6685C141.88 43.6685 141.558 43.9422 141.246 44.2844C140.117 45.4887 139.039 45.995 137.54 45.995C135.473 45.995 134.164 45.1329 132.847 42.9295C132.262 41.9579 132.023 41.4241 131.719 40.4525C131.052 38.3175 130.698 35.8678 130.64 33.1034L130.615 31.9128L136.709 31.8717L142.802 31.8307L142.827 31.1464C142.843 30.7632 142.81 29.7778 142.761 28.9567C142.382 22.812 140.883 18.5695 138.339 16.4483ZM135.918 29.0799C134.197 29.2441 130.508 29.3262 130.459 29.2031C130.393 29.0388 130.549 26.6028 130.706 25.3438C131.076 22.3056 131.661 20.1023 132.468 18.7474C132.904 18.0221 133.102 17.7894 133.456 17.6252C133.703 17.502 133.975 17.4062 134.074 17.4062C134.452 17.4062 134.897 17.7347 135.226 18.2411C136.116 19.6096 136.626 22.5383 136.725 26.8765L136.774 29.0115L135.918 29.0799Z" fill="black"/>
</svg>