<svg xmlns="http://www.w3.org/2000/svg" width="178" height="51" viewBox="0 0 178 51" fill="none">
<g clip-path="url(#clip0_160_104)">
<path d="M108.481 49.9459V0.0678711H117.249V49.9459H108.481Z" fill="black"/>
<path d="M144.015 49.2999C142.301 49.8779 139.235 50.4219 136.961 50.4219C129.347 50.4219 126.149 46.8519 126.149 39.6099V19.8899H120.183V12.4439H126.149V0.0339355H134.917V12.4439H143.751V19.8899H134.917V37.7739C134.917 40.9019 135.972 42.3979 138.774 42.3979C140.488 42.3979 142.631 41.9559 144.015 41.3779V49.2999Z" fill="black"/>
<path d="M9.85589 19.9919H27.6889V0.0678711H37.2481V49.9459H27.6889V29.1719H9.85589V49.9459H0.296631V0.0678711H9.85589V19.9919Z" fill="black"/>
<path d="M72.3537 30.0559C72.3537 20.2979 68.2004 11.5599 56.8281 11.5599C46.1152 11.5599 40.4456 20.0599 40.4456 31.2119C40.4456 43.1119 46.7415 50.8639 58.1467 50.8639C62.7615 50.8639 68.0026 50.0139 71.1011 48.3479V40.2219C68.0685 41.8879 63.6515 43.1119 59.597 43.1119C53.8285 43.1119 50.2356 40.3239 49.5104 33.9319H72.2219C72.3537 32.6399 72.3537 31.3139 72.3537 30.0559ZM49.4444 27.5399C50.0707 21.3519 52.7407 18.8699 56.96 18.8699C60.9815 18.8699 63.6515 22.4059 63.6515 27.5399H49.4444ZM89.7252 11.5599C84.8796 11.5599 80.8582 12.3759 77.6937 13.8379V21.9639C80.8582 20.3319 84.8137 19.4139 88.6044 19.4139C94.373 19.4139 95.6256 22.4739 95.6585 27.4719C93.5819 26.8599 91.0107 26.4859 88.5056 26.4859C80.4626 26.4859 74.5293 30.9399 74.5293 38.9299C74.5293 46.2059 79.1111 50.7959 86.297 50.7959C90.4504 50.7959 93.6148 49.4019 95.9882 46.5119V49.9119H104.493V25.8739C104.493 17.2379 99.9767 11.5599 89.7252 11.5599ZM88.4067 43.9619C85.0774 43.9619 83.0337 42.1939 83.0337 38.6239C83.0337 35.2239 84.9785 32.7759 89.9889 32.7759C91.9667 32.7759 93.9774 33.1159 95.6585 33.5919V35.4959C95.6585 40.7999 92.3622 43.9619 88.4067 43.9619ZM166.1 11.5599C162.046 11.5599 158.519 13.3279 156.376 15.9119V0.0339355H147.575V49.9119H156.376V29.2399C156.376 23.1539 158.651 19.5499 163.364 19.5499C167.155 19.5499 169.1 22.2019 169.1 27.3699V49.9119H177.901V25.6019C177.868 17.7819 174.934 11.5599 166.1 11.5599Z" fill="black"/>
</g>
<defs>
<clipPath id="clip0_160_104">
<rect width="178" height="51" fill="white"/>
</clipPath>
</defs>
</svg>