<svg xmlns="http://www.w3.org/2000/svg" width="141" height="81" viewBox="0 0 141 81" fill="none">
  <g clip-path="url(#clip0_160_67)">
    <path d="M0.876953 31.998V66.7867H13.1612V54.313H24.3963V66.7867H36.6772V31.998H24.3963V44.2724H13.1612V31.998H0.876953Z" fill="#00AAD4"/>
    <path d="M58.4446 31.2554C55.5395 31.2554 52.8547 31.7104 50.3875 32.6213C47.9204 33.5323 45.7768 34.8004 43.9568 36.4235C42.1369 38.0467 40.7177 39.9666 39.7025 42.1863C38.6873 44.406 38.1814 46.808 38.1814 49.3921V49.4918C38.1814 52.175 38.7131 54.6258 39.7806 56.8455C40.8481 59.0652 42.3188 60.9697 44.1911 62.56C46.0634 64.1503 48.2518 65.3787 50.7542 66.2401C53.2567 67.1014 55.9415 67.5321 58.8113 67.5321C62.1714 67.5321 65.2182 67.05 67.9481 66.089C70.678 65.128 73.039 63.8695 75.0341 62.3125V46.2135H57.2359V53.6668H63.5376V57.1444C63.0484 57.4093 62.487 57.6065 61.8569 57.739C61.2267 57.8714 60.3875 57.9382 59.3376 57.9382C58.0431 57.9382 56.8638 57.741 55.7963 57.3436C54.7288 56.9463 53.8093 56.382 53.0393 55.6531C52.2692 54.9241 51.6635 54.048 51.2262 53.0208C50.7888 51.9936 50.5709 50.865 50.5709 49.6396V49.5432C50.5709 48.3502 50.7731 47.2555 51.1753 46.2617C51.5774 45.2678 52.1443 44.4066 52.8797 43.6776C53.615 42.9487 54.4896 42.3785 55.5043 41.9645C56.5189 41.5505 57.6215 41.341 58.8113 41.341C60.3514 41.341 61.7868 41.6083 63.1166 42.1381C64.4463 42.6679 65.7248 43.4136 66.9499 44.375L73.8254 36.5199C71.8302 34.8639 69.5651 33.5747 67.028 32.647C64.4908 31.7195 61.6295 31.2554 58.4446 31.2554Z" fill="#00AAD4"/>
    <path d="M75.1226 31.998V41.8394H85.2437V66.7867H96.7409V41.8394H106.862V31.998H75.1226Z" fill="#00AAD4"/>
    <path d="M98.5977 31.998L113.506 67.0341H125.268L140.177 31.998H126.633L119.492 51.5297L112.352 31.998H98.5977Z" fill="#00AAD4"/>
    <path d="M49.4685 0L1.56665 29.6913L96.6357 29.8476L49.4685 0Z" fill="#00AAD4"/>
  </g>
  <defs>
    <clipPath id="clip0_160_67">
      <rect width="139.41" height="80.69" fill="white" transform="translate(0.766602)"/>
    </clipPath>
  </defs>
</svg>