<svg xmlns="http://www.w3.org/2000/svg" width="178" height="55" viewBox="0 0 178 55" fill="none">
<path d="M0.112305 0V43.2032H21.0908V36.2766H8.14914V0H0.112305ZM22.45 11.6793H29.7777V43.2032H22.45V11.6793ZM43.133 31.979H43.2512L48.0969 11.6793H55.4246L46.7969 43.2032H39.5873L30.9596 11.6793H38.2873L43.133 31.979ZM56.6065 11.6793H63.9342V43.2032H56.6065V11.6793ZM65.9139 43.2032V11.6793H73.0052V15.269C75.694 12.9433 78.176 11.0978 81.2193 11.0978C85.7105 11.0978 88.0447 13.3478 88.0447 19.2127V43.2032H80.6875V20.0216C80.6875 17.9234 79.9783 16.5583 77.9987 16.5583C76.4918 16.5583 74.8076 17.974 73.2416 19.4149V43.2285C73.2416 43.2032 65.9139 43.2032 65.9139 43.2032ZM105.389 45.3015C107.605 45.4784 108.078 45.9335 108.078 46.9952C108.078 48.6131 106.039 49.4979 102.523 49.4979C98.209 49.4979 95.8156 48.8154 95.8156 47.1722C95.8156 46.0093 96.5839 45.3773 97.3225 44.6189L105.389 45.3015ZM115.405 11.0726C112.658 11.0726 110.855 12.4124 108.994 14.7129C107.044 12.463 104 11.1231 100.72 11.0726C92.5063 11.0726 89.8766 16.1791 89.8766 22.9541C89.8766 28.2376 91.0881 31.5998 94.6337 33.9003C92.8314 35.0126 90.2017 36.681 90.2017 39.1837C90.2017 41.2314 91.4722 42.5965 93.2155 43.6583C91.4722 44.7453 88.7834 46.1863 88.7834 48.5878C88.7834 52.127 93.0973 54.3264 100.898 54.3264C109.407 54.3264 114.992 51.7731 114.992 46.3885C114.992 34.9873 96.5839 41.0545 96.5839 37.1108C96.5839 36.3524 97.4407 35.8468 97.8544 35.2654C98.8294 35.5687 99.8636 35.6951 100.868 35.6698C108.078 35.6698 111.476 31.1448 111.476 23.2574C111.476 21.3615 111.003 19.7688 110.56 17.6959C111.564 17.4178 112.303 17.0133 113.071 17.0133C113.839 17.1144 114.608 17.2661 115.346 17.4936L115.405 11.0726ZM104.562 23.0805C104.562 28.5915 103.498 29.7291 100.366 29.7291C98.1499 29.7291 96.8793 27.7573 96.8793 23.8136C96.8793 18.884 97.943 16.988 100.72 16.988C103.291 16.988 104.562 19.0104 104.562 23.0805ZM138.57 29.1982V21.8418C138.57 15.3954 133.725 11.1231 126.899 11.1231C119.897 11.1231 115.228 15.3954 115.228 22.3221V32.6363C115.228 39.5377 119.897 43.8352 126.899 43.8352C134.286 43.8352 138.186 40.0433 138.57 33.5211H131.243C131.243 35.9479 130.031 37.9198 126.929 37.9198C124.476 37.9198 122.615 36.5294 122.615 33.3947V29.2235H138.57V29.1982ZM122.644 23.2827V21.5384C122.644 18.7576 123.974 17.0133 126.958 17.0133C129.943 17.0133 131.272 18.7576 131.272 21.5384V23.2827H122.644ZM138.57 17.5948V11.6793H141.496V4.22173H148.823V11.6793H153.551V17.5948H148.853V35.0884C148.853 36.6558 150.182 37.4142 152.192 37.4142C152.664 37.4142 153.167 37.4142 153.639 37.3636V43.5066C152.251 43.7088 150.862 43.81 149.444 43.7847C144.687 43.7847 141.525 42.0404 141.525 37.5153V17.5695H138.57V17.5948ZM170.038 22.5749V21.1845C170.038 18.7576 168.295 17.4684 165.724 17.4684C163.154 17.4684 161.41 18.7324 161.41 21.1845V33.698C161.41 36.1249 163.154 37.4142 165.724 37.4142C168.295 37.4142 170.038 36.1502 170.038 33.698V31.7262H177.366V31.8526C177.366 40.1949 173.052 43.7847 165.695 43.7847C158.337 43.7847 154.024 40.1949 154.024 31.8526V23.0552C154.024 14.7129 158.337 11.1231 165.695 11.1231C172.875 11.1231 177.159 14.6117 177.277 22.6002L170.038 22.5749ZM56.577 4.22173H63.9342V10.1625H56.577V4.22173ZM22.4795 4.22173H29.8368V10.1625H22.4795V4.22173Z" fill="black"/>
</svg>