<svg xmlns="http://www.w3.org/2000/svg" width="20" height="21" viewBox="0 0 20 21" fill="none">
<path d="M9.99992 10.5C9.08325 10.5 8.33325 9.74999 8.33325 8.83332C8.33325 7.91666 9.08325 7.16666 9.99992 7.16666C10.9166 7.16666 11.6666 7.91666 11.6666 8.83332C11.6666 9.74999 10.9166 10.5 9.99992 10.5ZM14.9999 8.99999C14.9999 5.97499 12.7916 3.83332 9.99992 3.83332C7.20825 3.83332 4.99992 5.97499 4.99992 8.99999C4.99992 10.95 6.62492 13.5333 9.99992 16.6167C13.3749 13.5333 14.9999 10.95 14.9999 8.99999ZM9.99992 2.16666C13.4999 2.16666 16.6666 4.84999 16.6666 8.99999C16.6666 11.7667 14.4416 15.0417 9.99992 18.8333C5.55825 15.0417 3.33325 11.7667 3.33325 8.99999C3.33325 4.84999 6.49992 2.16666 9.99992 2.16666Z" fill="black"/>
</svg>