<svg xmlns="http://www.w3.org/2000/svg" width="200" height="51" viewBox="0 0 200 51" fill="none">
  <path fill-rule="evenodd" clip-rule="evenodd" d="M7.70855 18.9121H14.8593C16.7922 18.9121 18.1747 18.4662 19.0084 17.5679C19.9065 16.7524 20.3555 15.3315 20.3555 13.3185C20.3555 11.6047 19.9419 10.2219 19.1086 9.18352C18.1393 8.29175 16.863 7.83934 15.2733 7.83934H7.7025V18.9121H7.70855ZM7.70855 25.8373V35.7632C7.70855 37.8721 6.12487 39.5858 4.16255 39.5858H0.344971V5.1575C0.344971 4.04232 0.705486 3.08677 1.43817 2.3095C2.1592 1.53222 3.0456 1.13101 4.08008 1.13101H16.2128C20.0127 1.13101 22.8498 2.17592 24.711 4.26526C26.6436 6.35507 27.6189 9.4451 27.6189 13.5414C27.6189 17.4148 26.685 20.4731 24.8177 22.7026C22.9499 24.7924 20.2553 25.8373 16.727 25.8373H7.70855Z" fill="#6E6E72"/>
  <path fill-rule="evenodd" clip-rule="evenodd" d="M53.844 11.3102V26.8738C53.844 32.2242 52.6347 35.4409 50.0737 37.0979C47.5069 38.7611 44.6969 39.5858 41.6502 39.5858C38.6682 39.438 35.9473 38.5287 33.4874 36.8721C31.0271 35.209 29.717 32.0763 29.717 26.8738V11.3102H36.9968V28.46C36.9968 30.271 37.4767 31.5926 38.455 32.4178C39.4271 33.2492 40.5356 33.662 41.7805 33.662C43.0255 33.662 44.1579 33.2492 45.1596 32.4178C46.1612 31.5926 46.6651 30.271 46.6651 28.46V15.1585C46.6651 14.1014 46.9913 13.1992 47.6551 12.4448C48.3131 11.6905 49.161 11.3168 50.2044 11.3168L53.844 11.3102Z" fill="#6E6E72"/>
  <path fill-rule="evenodd" clip-rule="evenodd" d="M77.6825 1.13101C74.839 1.13101 72.8015 1.76624 71.5515 3.02972C70.2367 4.36998 69.5791 6.37665 69.5791 9.05066V39.5858H69.5847H76.6577V17.1862H77.6942C78.5888 17.1862 79.3884 16.8367 80.0815 16.1257C80.7687 15.4206 81.1181 14.5062 81.1181 13.3944V11.7242H76.646V9.71753C76.646 8.82216 76.8179 8.23114 77.1673 7.93284C77.5818 7.63454 78.275 7.48841 79.2464 7.48841H81.1181V1.13101H77.6825Z" fill="#6E6E72"/>
  <path fill-rule="evenodd" clip-rule="evenodd" d="M83.3741 49.5498L87.3695 43.4405H89.3639C90.7653 43.4405 91.8736 43.0921 92.6764 42.3827C93.4791 41.6739 93.6406 40.5531 93.1495 38.9957L83.3741 11.3102H91.4663L97.1449 30.436L102.087 13.9754C102.506 12.1963 103.632 11.3102 105.447 11.3102H110.49L99.7683 43.2062C98.93 45.6496 97.8757 47.3907 96.6116 48.4289C95.348 49.3155 93.2812 49.765 90.412 49.765H89.6812H83.2161L83.3741 49.5498Z" fill="#6E6E72"/>
  <mask id="mask0_90_72" style="mask-type:luminance" maskUnits="userSpaceOnUse" x="110" y="0" width="90" height="51">
    <path d="M110.49 0H199.655V50.8961H110.49V0Z" fill="white"/>
  </mask>
  <g mask="url(#mask0_90_72)">
    <path fill-rule="evenodd" clip-rule="evenodd" d="M190.99 46.2555C187.129 45.7685 182.132 43.361 181.332 42.8633C173.547 38.0259 166.612 35.1744 153.315 41.3336C141.811 46.6631 130.391 45.8105 122.757 40.4124C118.549 37.4366 116.54 33.4897 116.091 29.5017C115.694 25.9764 117.077 23.0347 118.835 20.8826C123.895 14.687 132.688 17.6221 132.688 17.6221L133.343 15.3715C133.456 14.9807 136.717 5.60057 145.166 6.01567C153.955 6.43543 157.071 17.475 157.071 17.475C157.071 17.475 159.813 16.2428 163.269 16.4258C166.296 16.586 169.867 17.8616 172.683 21.6143C178.41 29.2481 174.005 37.6178 174.005 37.6178C174.005 37.6178 174.267 37.8639 174.99 36.9786C175.494 36.3622 176.424 34.9035 177.201 32.8995C178.06 30.888 178.542 28.6519 178.542 26.2934C178.542 17.531 171.933 10.4277 163.781 10.4277C163.034 10.4277 162.3 10.4898 161.582 10.6056C161.246 10.635 160.93 10.67 160.639 10.7069C158.866 7.1489 154.91 0.472301 145.413 0.0189146C136.528 -0.409725 130.858 6.53909 128.755 11.4983C125.848 10.8965 120.105 11.0463 115.032 16.4865C112.029 19.7065 110.303 24.2688 110.506 29.5017C110.751 35.8122 113.841 41.2925 119.687 45.4272C124.455 48.7984 130.627 50.8963 136.895 50.8963C142.766 50.8963 149.058 49.6785 155.525 46.8466C168.67 41.0908 172.682 43.6295 178.281 46.3503C182.696 48.4953 186.705 49.5408 190.505 49.1079C195.704 48.5163 199.655 45.69 199.655 45.69C199.655 45.69 195.887 46.8732 190.99 46.2555Z" fill="#157BC0"/>
  </g>
  <path fill-rule="evenodd" clip-rule="evenodd" d="M64.0453 1.13101C61.2018 1.13101 59.1643 1.76624 57.9143 3.02972C56.5995 4.36998 55.9419 6.37665 55.9419 9.05066V39.5858H55.9475H63.0205V17.1862H64.057C64.9516 17.1862 65.7512 16.8367 66.4443 16.1257C67.1315 15.4206 67.4809 14.5062 67.4809 13.3944V11.7242H63.0088V9.71753C63.0088 8.82216 63.1807 8.23114 63.5301 7.93284C63.9446 7.63454 64.6378 7.48841 65.6092 7.48841H67.4809V1.13101H64.0453Z" fill="#6E6E72"/>
</svg>