<svg xmlns="http://www.w3.org/2000/svg" width="178" height="71" viewBox="0 0 178 71" fill="none">
<g clip-path="url(#clip0_160_110)">
<path fill-rule="evenodd" clip-rule="evenodd" d="M19.8472 24.1623H23.2918C26.407 24.0727 27.4976 22.1992 27.4976 17.4461C27.4976 13.1215 25.9722 10.8732 23.2918 10.8732H19.8472V24.1623ZM112.425 42.3991C112.425 45.9523 113.299 48.6523 115.798 48.6523C118.592 48.6523 120.255 44.8802 120.255 36.0113C120.255 26.2703 118.75 22.9287 116.126 22.8126C113.586 22.7024 112.288 24.8544 112.425 29.298V42.3991ZM160.967 23.1821C158.228 23.1675 157.079 26.252 156.906 29.7374C156.847 30.9203 156.825 30.9726 156.906 31.8564H165.027C165.107 30.9726 165.086 30.9203 165.027 29.7374C164.854 26.252 163.705 23.1704 160.967 23.1821ZM53.612 22.9243C50.8718 22.9096 49.6363 26.252 49.4608 29.7374C49.4042 30.9203 49.3813 30.9726 49.4608 31.8564H57.5856C57.6644 30.9726 57.646 30.9203 57.5856 29.7374C57.4118 26.252 56.3479 22.9096 53.612 22.9258V22.9243ZM79.9122 35.968C79.9122 43.0347 81.187 48.72 84.3831 48.7665C87.6663 48.806 88.8533 43.0347 88.8533 35.968C88.8533 28.9036 87.5794 23.2211 84.3817 23.1763C81.2732 23.1315 79.9122 28.9036 79.9122 35.968ZM53.6842 48.6708C55.9123 48.6832 57.0898 46.5937 57.5459 43.9376L68.2509 43.931C67.7094 41.2691 67.6451 40.7078 67.5847 38.6396L49.5581 38.6432C49.4851 39.4477 49.5625 40.8011 49.6237 42.0427C49.7976 45.5305 50.9463 48.687 53.6842 48.6708ZM161.044 48.6708C163.272 48.6832 164.446 46.5717 164.904 43.9157H177.11C175.571 62.4455 149.873 62.5932 147.629 47.9009V57.4657H129.906V47.7957C128.361 57.2524 122.938 58.5566 120.559 58.5508C118.562 58.5412 113.673 56.9049 111.862 51.9248L112.038 57.3478C112.076 60.7196 114.235 62.8518 116.525 63.1605V70.9934L95.8477 71V63.1606C97.5844 63.1105 100.366 61.4104 100.397 57.6287V43.4292C99.761 47.0008 97.1091 58.5434 84.3919 58.5434C71.7897 58.5434 68.9397 46.3528 68.3981 44.5659C66.0455 57.8477 57.1869 58.5816 53.2981 58.5325C46.3103 58.4422 42.1288 53.651 42.0257 53.5427C37.823 49.2873 37.0155 42.84 37.1842 35.8887C37.1842 34.4928 37.543 31.7742 37.6682 30.4385C33.1479 35.284 28.9592 34.6771 23.9851 34.8652L19.8074 34.8528V42.7975C19.8023 45.9928 20.9804 47.9009 24.5554 47.9252V57.4782H0V48.1285C3.57565 48.1007 4.80249 46.0206 4.798 42.8215V14.502C4.798 13.8232 4.63083 9.44486 0.0139369 9.41113V0H26.5131C31.5058 0 35.0572 1.51795 37.4495 3.3944C41.8667 6.86745 42.7508 12.8327 43.1096 17.25C49.8602 11.3926 65.8555 10.0885 68.5345 27.6126C71.428 14.2597 81.2938 13.2501 83.6043 13.2391C87.7548 13.2259 94.8406 15.7232 97.1365 22.4805V14.1502H111.652V19.5092C112.721 15.4646 116.303 13.2677 119.934 13.2457C123.437 13.2229 130.607 17.1009 132.449 31.863V12.2075C132.43 9.37438 130.694 7.9109 127.852 7.92618L127.842 0.0858893H144.736V31.8755C146.275 17.7945 154.155 13.2868 160.79 13.2868C167.524 13.2868 172.302 17.034 174.749 21.8252C177.88 27.9566 177.657 34.4361 177.468 38.6373L156.919 38.6433C156.843 39.4478 156.919 40.8012 156.983 42.0428C157.156 45.5305 158.302 48.687 161.044 48.6708Z" fill="#20B1EA"/>
</g>
<defs>
<clipPath id="clip0_160_110">
<rect width="178" height="71" fill="white"/>
</clipPath>
</defs>
</svg>