<svg xmlns="http://www.w3.org/2000/svg" width="20" height="21" viewBox="0 0 20 21" fill="none">
<path d="M16.9901 18.6417H16.7985C14.3775 18.375 12.052 17.5475 10.0068 16.225C8.11133 15.0202 6.50165 13.4162 5.29015 11.525C3.96124 9.46757 3.13351 7.12707 2.87348 4.69164C2.85019 4.39292 2.88703 4.09255 2.98181 3.80831C3.08052 3.52842 3.23344 3.27072 3.43181 3.04997C3.63185 2.83151 3.87616 2.65821 4.14848 2.54164C4.40991 2.42155 4.69411 2.35902 4.98181 2.35831H7.26515C7.79097 2.35875 8.30041 2.54132 8.70681 2.87497C9.08666 3.21761 9.3319 3.68444 9.39846 4.19164C9.48229 4.87277 9.64737 5.54142 9.89012 6.18331C10.0352 6.56501 10.0667 6.98052 9.98096 7.37973C9.89521 7.77896 9.69579 8.14485 9.40679 8.43331L8.79015 9.02499C9.71337 10.4984 10.9584 11.7434 12.4318 12.6667L13.0485 12.05C13.3438 11.7773 13.711 11.5951 14.1068 11.525C14.5047 11.4423 14.9179 11.4741 15.2985 11.6167C15.9378 11.8585 16.6035 12.0235 17.2818 12.1083C17.7993 12.1814 18.2721 12.4412 18.6113 12.8387C18.9505 13.2363 19.1327 13.7442 19.1235 14.2667V16.525C19.1231 16.9716 18.9831 17.4068 18.7231 17.7699C18.4631 18.133 18.0961 18.4057 17.6735 18.55C17.4521 18.6172 17.2214 18.6482 16.9901 18.6417ZM7.28181 3.60831H5.00681C4.88346 3.60826 4.76145 3.63379 4.64848 3.68331C4.53777 3.73535 4.43861 3.80902 4.35681 3.89997C4.27267 3.98719 4.20991 4.09273 4.17348 4.20831C4.13183 4.32581 4.11481 4.45061 4.12348 4.57497C4.37054 6.80136 5.1292 8.94041 6.34015 10.825C7.45572 12.5697 8.93713 14.0511 10.6818 15.1667C12.5644 16.3712 14.7012 17.1214 16.9235 17.3583C17.0418 17.3731 17.162 17.3587 17.2735 17.3167C17.3902 17.2772 17.4979 17.2149 17.5901 17.1333C17.681 17.0499 17.752 16.9475 17.7985 16.8333C17.8417 16.7358 17.8671 16.6314 17.8735 16.525V14.2167C17.8837 13.9998 17.809 13.7876 17.6651 13.625C17.5223 13.4641 17.3278 13.358 17.1151 13.325C16.3457 13.224 15.5906 13.0338 14.8651 12.7583C14.7016 12.7124 14.5286 12.7124 14.3651 12.7583C14.2005 12.7907 14.0495 12.872 13.9318 12.9917L12.9735 13.95C12.8774 14.0476 12.7515 14.1104 12.6156 14.1285C12.4798 14.1467 12.3419 14.119 12.2235 14.05C10.233 12.9127 8.58843 11.2567 7.46515 9.25832C7.39613 9.13999 7.36849 9.00199 7.3866 8.86616C7.40471 8.73036 7.46753 8.60445 7.56515 8.50831L8.52348 7.54997C8.6456 7.43168 8.72861 7.27887 8.76139 7.11203C8.79416 6.9452 8.77511 6.77234 8.70681 6.61664C8.43974 5.88676 8.25526 5.12926 8.15681 4.35831C8.12325 4.15746 8.02256 3.97392 7.87119 3.8377C7.71983 3.70147 7.52675 3.62061 7.32348 3.60831H7.28181Z" fill="black"/>
</svg>