<svg xmlns="http://www.w3.org/2000/svg" width="205" height="99" viewBox="0 0 205 99" fill="none">
  <path fill-rule="evenodd" clip-rule="evenodd" d="M7.26253 41.2857C8.91001 40.9542 10.4603 42.3564 10.7252 44.4176C12.4216 57.6149 21.5722 67.6966 32.5992 67.6966C43.6264 67.6966 52.7769 57.6149 54.4733 44.4176C54.7383 42.3564 56.2885 40.9542 57.936 41.2857C59.5835 41.6172 60.7042 43.5567 60.4393 45.6178C58.2794 62.4214 46.6403 75.2562 32.5992 75.2562C18.5582 75.2562 6.91915 62.4214 4.75923 45.6178C4.4943 43.5567 5.61507 41.6172 7.26253 41.2857Z" fill="#2B385C"/>
  <path fill-rule="evenodd" clip-rule="evenodd" d="M48.7112 39.725C46.1523 42.9912 42.5861 45.0177 38.6415 45.0177C30.8546 45.0177 24.5422 37.1204 24.5422 27.3784C24.5422 25.5287 24.7697 23.7454 25.1918 22.0701C20.0194 25.4255 16.4854 32.1853 16.4854 39.9778C16.4854 51.1113 23.6996 60.1369 32.599 60.1369C41.4982 60.1369 48.7125 51.1113 48.7125 39.9778C48.7125 39.8933 48.712 39.809 48.7112 39.725Z" fill="#A7ADEC"/>
  <path d="M89.1284 46.5802C88.2221 46.5802 87.3967 46.4417 86.6509 46.1645C85.926 45.8874 85.2813 45.5346 84.7176 45.1062C84.1734 44.6778 83.7101 44.2367 83.3277 43.7831C82.9447 43.3296 82.6628 42.9139 82.4814 42.5359C82.2198 42.0823 82.0485 41.6791 81.9683 41.3263C81.8874 40.9735 81.9076 40.6333 82.0283 40.3057C82.1692 39.9529 82.4214 39.5876 82.7836 39.2096C83.1463 38.8064 83.4788 38.6049 83.7809 38.6049C84.1032 38.5797 84.4053 38.693 84.6872 38.945C84.9893 39.197 85.2813 39.5498 85.5632 40.0033C86.0467 40.8097 86.5909 41.3893 87.1951 41.7421C87.7993 42.0697 88.4035 42.2335 89.0077 42.2335C89.7933 42.2335 90.4778 42.1075 91.0624 41.8555C91.6464 41.5783 92.0996 41.1752 92.4219 40.646C92.7645 40.1168 92.9351 39.4365 92.9351 38.6049C92.9351 37.9245 92.7645 37.3701 92.4219 36.9417C92.0996 36.4882 91.6667 36.1101 91.1225 35.8078C90.5789 35.4802 89.9646 35.1904 89.2795 34.9384C88.6153 34.6612 87.9402 34.3589 87.2551 34.0313C86.7716 33.8297 86.2888 33.5903 85.8053 33.3131C85.3218 33.0107 84.8686 32.6705 84.4458 32.2925C84.0425 31.9146 83.6804 31.4736 83.3581 30.9696C83.056 30.4404 82.8139 29.8356 82.6325 29.1552C82.4518 28.475 82.3607 27.6812 82.3607 26.774C82.3607 25.3377 82.6426 24.0777 83.207 22.9942C83.7708 21.8854 84.5564 21.0161 85.5632 20.3861C86.5707 19.7309 87.7184 19.4033 89.0077 19.4033C89.8338 19.4033 90.5688 19.5041 91.2135 19.7057C91.8777 19.8821 92.4421 20.1215 92.9054 20.4238C93.3889 20.7011 93.7814 20.9908 94.0835 21.2932C94.4058 21.5704 94.6371 21.8098 94.7781 22.0114C95.2413 22.5909 95.4935 23.0824 95.534 23.4855C95.594 23.8635 95.4126 24.3801 94.9898 25.0353C94.567 25.7156 94.1543 26.0937 93.751 26.1692C93.3687 26.2196 92.9351 26.018 92.4523 25.5645C92.1299 25.1361 91.8076 24.7959 91.4853 24.5439C91.1629 24.2667 90.8001 24.0651 90.3975 23.9391C90.0145 23.8131 89.5418 23.7502 88.9774 23.7502C88.5748 23.7502 88.1817 23.8258 87.7993 23.9769C87.4365 24.1029 87.1243 24.3045 86.8626 24.5817C86.601 24.8337 86.3893 25.1486 86.2281 25.5267C86.0872 25.9046 86.0163 26.333 86.0163 26.8118C86.0163 27.467 86.158 28.0088 86.4398 28.4372C86.7419 28.8403 87.1445 29.1805 87.6483 29.4577C88.152 29.7097 88.7157 29.949 89.3402 30.1759C89.9646 30.4026 90.5992 30.642 91.2438 30.894C91.9081 31.1712 92.5629 31.4987 93.2075 31.8768C93.8515 32.2547 94.4261 32.7336 94.9298 33.3131C95.4329 33.8675 95.8361 34.5731 96.1382 35.4298C96.4403 36.2614 96.5914 37.2819 96.5914 38.4914C96.5914 39.8773 96.3796 41.0868 95.9568 42.12C95.534 43.1532 94.9595 43.9974 94.2345 44.6526C93.5096 45.3078 92.7038 45.7866 91.8177 46.0889C90.9309 46.4165 90.0347 46.5802 89.1284 46.5802Z" fill="#2B385C"/>
  <path d="M101.238 46.2401C100.654 46.2401 100.231 46.1267 99.9692 45.8999C99.7076 45.6983 99.5363 45.4211 99.456 45.0683C99.3953 44.7155 99.365 44.3375 99.365 43.9343V22.1248C99.365 21.6964 99.3953 21.3058 99.456 20.9531C99.5363 20.6003 99.6974 20.3231 99.9389 20.1215C100.201 19.9199 100.624 19.8191 101.208 19.8191C101.772 19.8191 102.175 19.9199 102.416 20.1215C102.678 20.3231 102.84 20.6003 102.9 20.9531C102.981 21.3058 103.021 21.6964 103.021 22.1248V42.1579H112.236C112.538 42.1579 112.81 42.1956 113.051 42.2712C113.294 42.3216 113.484 42.498 113.625 42.8004C113.767 43.0776 113.837 43.5312 113.837 44.1611C113.837 44.7911 113.767 45.2574 113.625 45.5597C113.484 45.837 113.294 46.0134 113.051 46.0889C112.81 46.1898 112.538 46.2401 112.236 46.2401H101.238Z" fill="#2B385C"/>
  <path d="M118.264 46.2401C117.7 46.2401 117.287 46.1267 117.026 45.8999C116.764 45.6983 116.602 45.4211 116.542 45.0683C116.481 44.7155 116.452 44.325 116.452 43.8966V22.087C116.452 21.2302 116.582 20.6381 116.844 20.3105C117.126 19.9829 117.63 19.8191 118.355 19.8191H130.138C130.48 19.8191 130.782 19.8695 131.044 19.9703C131.326 20.0459 131.547 20.2475 131.709 20.5751C131.87 20.8775 131.951 21.394 131.951 22.1248C131.951 22.8304 131.86 23.3469 131.679 23.6745C131.518 24.0021 131.296 24.2037 131.014 24.2793C130.752 24.3549 130.45 24.3927 130.108 24.3927H120.107V30.7428H126.996C127.338 30.7428 127.63 30.7932 127.872 30.894C128.114 30.9696 128.305 31.146 128.446 31.4232C128.587 31.7004 128.657 32.1665 128.657 32.8217C128.657 33.4517 128.587 33.9179 128.446 34.2202C128.305 34.4974 128.104 34.6738 127.842 34.7494C127.58 34.7999 127.278 34.825 126.935 34.825H120.107V41.6287H130.138C130.48 41.6287 130.782 41.6792 131.044 41.7799C131.326 41.8555 131.547 42.0571 131.709 42.3847C131.87 42.7123 131.951 43.2288 131.951 43.9343C131.951 44.6399 131.86 45.1566 131.679 45.4842C131.518 45.8117 131.296 46.0134 131.014 46.0889C130.752 46.1898 130.45 46.2401 130.108 46.2401H118.264Z" fill="#2B385C"/>
  <path d="M136.911 46.2401C136.348 46.2401 135.935 46.1267 135.673 45.8999C135.41 45.6983 135.249 45.4211 135.19 45.0683C135.129 44.7155 135.099 44.325 135.099 43.8966V22.087C135.099 21.2302 135.23 20.6381 135.491 20.3105C135.774 19.9829 136.278 19.8191 137.002 19.8191H148.785C149.129 19.8191 149.429 19.8695 149.692 19.9703C149.974 20.0459 150.195 20.2475 150.357 20.5751C150.517 20.8775 150.598 21.394 150.598 22.1248C150.598 22.8304 150.508 23.3469 150.326 23.6745C150.166 24.0021 149.943 24.2037 149.662 24.2793C149.4 24.3549 149.097 24.3927 148.756 24.3927H138.754V30.7428H145.643C145.985 30.7428 146.277 30.7932 146.519 30.894C146.761 30.9696 146.952 31.146 147.093 31.4232C147.234 31.7004 147.304 32.1665 147.304 32.8217C147.304 33.4517 147.234 33.9179 147.093 34.2202C146.952 34.4974 146.751 34.6738 146.489 34.7494C146.227 34.7999 145.925 34.825 145.584 34.825H138.754V41.6287H148.785C149.129 41.6287 149.429 41.6792 149.692 41.7799C149.974 41.8555 150.195 42.0571 150.357 42.3847C150.517 42.7123 150.598 43.2288 150.598 43.9343C150.598 44.6399 150.508 45.1566 150.326 45.4842C150.166 45.8117 149.943 46.0134 149.662 46.0889C149.4 46.1898 149.097 46.2401 148.756 46.2401H136.911Z" fill="#2B385C"/>
  <path d="M155.376 46.2023C154.813 46.2023 154.4 46.1014 154.138 45.8999C153.876 45.6983 153.715 45.4211 153.655 45.0683C153.594 44.6903 153.564 44.2998 153.564 43.8966V22.087C153.564 21.6838 153.594 21.3185 153.655 20.9909C153.735 20.6381 153.907 20.3609 154.168 20.1593C154.43 19.9325 154.843 19.8191 155.407 19.8191H161.812C162.698 19.8191 163.564 20.0081 164.41 20.3861C165.257 20.764 166.011 21.331 166.675 22.087C167.361 22.843 167.895 23.7753 168.278 24.8841C168.68 25.9928 168.883 27.2905 168.883 28.7773C168.883 30.2388 168.68 31.524 168.278 32.6327C167.895 33.7162 167.361 34.636 166.675 35.392C165.992 36.1479 165.226 36.715 164.381 37.0929C163.554 37.4709 162.688 37.6598 161.782 37.6598H157.219V43.9343C157.219 44.3375 157.179 44.7155 157.098 45.0683C157.038 45.4211 156.877 45.6983 156.616 45.8999C156.373 46.1014 155.96 46.2023 155.376 46.2023ZM157.219 33.0485H161.812C162.436 33.0485 163.001 32.8973 163.505 32.595C164.028 32.2673 164.451 31.7886 164.772 31.1586C165.095 30.5034 165.257 29.6845 165.257 28.7017C165.257 27.8197 165.105 27.0638 164.803 26.4338C164.521 25.7786 164.118 25.2747 163.594 24.9219C163.091 24.5691 162.487 24.3927 161.782 24.3927H157.219V33.0485Z" fill="#2B385C"/>
  <path d="M84.3549 78.1169C83.8316 78.1169 83.4384 78.0033 83.1768 77.7765C82.9151 77.575 82.7439 77.2978 82.6629 76.945C82.5827 76.5922 82.5422 76.2144 82.5422 75.8112V53.9638C82.5422 53.5606 82.5726 53.1951 82.6326 52.8675C82.7135 52.5147 82.8848 52.2376 83.1464 52.036C83.4081 51.8092 83.8215 51.6959 84.3852 51.6959L90.0652 51.7336C91.5359 51.7336 92.8853 52.0486 94.1139 52.6787C95.3628 53.3086 96.4404 54.2031 97.3467 55.3622C98.2531 56.5214 98.9476 57.9073 99.4311 59.5201C99.9349 61.1076 100.186 62.859 100.186 64.7741C100.186 66.7396 99.9349 68.5413 99.4311 70.1791C98.9281 71.8171 98.2227 73.2282 97.3164 74.4126C96.4101 75.597 95.3325 76.5166 94.0836 77.1717C92.8549 77.8018 91.4854 78.1169 89.9748 78.1169H84.3549ZM86.1978 73.5433H90.0652C91.3545 73.5433 92.482 73.1905 93.449 72.4849C94.4161 71.7542 95.1612 70.7462 95.6852 69.4611C96.2287 68.176 96.5004 66.6765 96.5004 64.963C96.5004 63.2242 96.2287 61.7123 95.6852 60.4272C95.1612 59.1168 94.4059 58.109 93.4187 57.4034C92.4524 56.6726 91.3242 56.3073 90.0349 56.3073H86.1978V73.5433Z" fill="#2B385C"/>
  <path d="M112.625 78.4565C111.175 78.4565 109.815 78.1165 108.546 77.4361C107.297 76.7305 106.189 75.773 105.223 74.5634C104.256 73.3287 103.501 71.9175 102.957 70.33C102.413 68.7173 102.141 66.9912 102.141 65.1517C102.141 63.2618 102.403 61.4979 102.927 59.8599C103.47 58.1968 104.206 56.7478 105.132 55.5131C106.079 54.2531 107.167 53.2703 108.395 52.5648C109.624 51.8592 110.944 51.5065 112.353 51.5065C113.824 51.5065 115.183 51.8592 116.432 52.5648C117.701 53.2452 118.808 54.2027 119.755 55.4375C120.702 56.6722 121.447 58.1086 121.991 59.7465C122.535 61.3592 122.807 63.1106 122.807 65.0005C122.807 66.84 122.545 68.5787 122.022 70.2167C121.498 71.8294 120.763 73.2657 119.816 74.5255C118.869 75.7602 117.781 76.7305 116.553 77.4361C115.344 78.1165 114.035 78.4565 112.625 78.4565ZM112.474 73.8451C113.401 73.8451 114.267 73.6184 115.073 73.1648C115.878 72.7112 116.583 72.0812 117.187 71.2749C117.812 70.4685 118.295 69.5363 118.638 68.4779C118.98 67.3944 119.151 66.2353 119.151 65.0005C119.151 63.7658 118.97 62.6192 118.607 61.5607C118.265 60.4772 117.781 59.5323 117.157 58.726C116.553 57.8945 115.848 57.2518 115.042 56.7982C114.257 56.3446 113.401 56.1178 112.474 56.1178C111.567 56.1178 110.712 56.3446 109.906 56.7982C109.101 57.2518 108.385 57.8945 107.761 58.726C107.156 59.5323 106.683 60.4772 106.34 61.5607C105.999 62.6443 105.827 63.7909 105.827 65.0005C105.827 66.21 105.999 67.3565 106.34 68.4401C106.703 69.5236 107.187 70.4685 107.791 71.2749C108.395 72.0812 109.09 72.7112 109.875 73.1648C110.681 73.6184 111.548 73.8451 112.474 73.8451Z" fill="#2B385C"/>
  <path d="M135.301 78.3056C134.314 78.3056 133.317 78.1292 132.31 77.7764C131.303 77.3983 130.336 76.844 129.409 76.1132C128.483 75.3573 127.657 74.4376 126.932 73.354C126.227 72.2453 125.663 70.9728 125.24 69.5365C124.817 68.075 124.605 66.4622 124.605 64.6983C124.605 62.9596 124.817 61.3973 125.24 60.0113C125.663 58.6002 126.227 57.3654 126.932 56.307C127.657 55.2487 128.473 54.3668 129.379 53.6612C130.306 52.9556 131.273 52.4265 132.279 52.0737C133.307 51.6957 134.324 51.4941 135.331 51.4689C136.359 51.4689 137.244 51.6074 137.991 51.8846C138.736 52.1617 139.339 52.4642 139.802 52.7918C140.266 53.0941 140.579 53.3084 140.74 53.4344C141.061 53.6864 141.364 53.9761 141.645 54.3037C141.948 54.606 142.109 54.9841 142.128 55.4376C142.149 55.74 142.12 56.0172 142.039 56.2692C141.957 56.496 141.847 56.7354 141.707 56.9874C141.464 57.4158 141.223 57.7307 140.981 57.9324C140.74 58.1339 140.497 58.2347 140.256 58.2347C140.035 58.2347 139.823 58.1591 139.621 58.0079C139.44 57.8567 139.208 57.6678 138.926 57.441C138.806 57.3402 138.584 57.189 138.262 56.9874C137.959 56.7607 137.547 56.559 137.023 56.3826C136.52 56.2063 135.905 56.118 135.18 56.118C134.314 56.118 133.468 56.307 132.642 56.6851C131.816 57.063 131.071 57.6299 130.406 58.3859C129.761 59.1166 129.248 60.0365 128.865 61.1453C128.483 62.2288 128.291 63.476 128.291 64.8872C128.291 66.2984 128.483 67.5583 128.865 68.667C129.248 69.7506 129.761 70.6704 130.406 71.4264C131.071 72.1572 131.816 72.7115 132.642 73.0895C133.468 73.4673 134.314 73.6564 135.18 73.6564C135.866 73.6564 136.45 73.5809 136.932 73.4296C137.436 73.2532 137.859 73.0517 138.202 72.8249C138.564 72.5729 138.835 72.3839 139.017 72.258C139.239 72.0816 139.45 71.9177 139.652 71.7665C139.853 71.6153 140.065 71.5397 140.287 71.5397C140.528 71.5397 140.759 71.6405 140.981 71.8421C141.223 72.0437 141.455 72.3713 141.676 72.8249C141.817 73.102 141.927 73.3666 142.008 73.6186C142.088 73.8706 142.12 74.1352 142.099 74.4124C142.079 74.8659 141.917 75.2565 141.616 75.584C141.333 75.8865 141.032 76.1511 140.709 76.3779C140.548 76.5039 140.236 76.7307 139.773 77.0583C139.328 77.3606 138.736 77.6378 137.991 77.8898C137.244 78.167 136.348 78.3056 135.301 78.3056Z" fill="#2B385C"/>
  <path d="M160.597 51.6959C160.9 51.6959 161.161 51.7336 161.382 51.8092C161.625 51.8848 161.816 52.0739 161.957 52.3762C162.097 52.6534 162.169 53.1071 162.169 53.737C162.169 54.367 162.097 54.8331 161.957 55.1355C161.816 55.4127 161.625 55.5891 161.382 55.6647C161.141 55.715 160.869 55.7402 160.567 55.7402H155.007V75.8867C155.007 76.3151 154.967 76.7057 154.887 77.0585C154.827 77.3861 154.665 77.6506 154.404 77.8522C154.162 78.0538 153.748 78.1546 153.164 78.1546C152.62 78.1546 152.218 78.0412 151.956 77.8145C151.695 77.6129 151.534 77.3483 151.473 77.0208C151.412 76.668 151.382 76.2774 151.382 75.849V55.7402H145.763C145.481 55.7402 145.219 55.7025 144.978 55.6269C144.735 55.5514 144.533 55.375 144.373 55.0977C144.233 54.8205 144.161 54.367 144.161 53.737C144.161 53.1071 144.233 52.6534 144.373 52.3762C144.514 52.0739 144.705 51.8848 144.946 51.8092C145.208 51.7336 145.481 51.6959 145.763 51.6959H160.597Z" fill="#2B385C"/>
  <path d="M172.431 78.4565C170.981 78.4565 169.621 78.1165 168.353 77.4361C167.104 76.7305 165.996 75.773 165.029 74.5634C164.063 73.3287 163.307 71.9175 162.764 70.33C162.219 68.7173 161.947 66.9912 161.947 65.1517C161.947 63.2618 162.209 61.4979 162.733 59.8599C163.276 58.1968 164.012 56.7478 164.939 55.5131C165.885 54.2531 166.973 53.2703 168.201 52.5648C169.43 51.8592 170.749 51.5065 172.16 51.5065C173.629 51.5065 174.989 51.8592 176.238 52.5648C177.507 53.2452 178.615 54.2027 179.562 55.4375C180.508 56.6722 181.254 58.1086 181.798 59.7465C182.34 61.3592 182.613 63.1106 182.613 65.0005C182.613 66.84 182.351 68.5787 181.828 70.2167C181.303 71.8294 180.569 73.2657 179.622 74.5255C178.675 75.7602 177.587 76.7305 176.359 77.4361C175.151 78.1165 173.841 78.4565 172.431 78.4565ZM172.281 73.8451C173.207 73.8451 174.073 73.6184 174.878 73.1648C175.684 72.7112 176.389 72.0812 176.994 71.2749C177.618 70.4685 178.101 69.5363 178.444 68.4779C178.787 67.3944 178.958 66.2353 178.958 65.0005C178.958 63.7658 178.776 62.6192 178.414 61.5607C178.071 60.4772 177.587 59.5323 176.963 58.726C176.359 57.8945 175.654 57.2518 174.849 56.7982C174.063 56.3446 173.207 56.1178 172.281 56.1178C171.374 56.1178 170.518 56.3446 169.712 56.7982C168.906 57.2518 168.192 57.8945 167.568 58.726C166.963 59.5323 166.489 60.4772 166.147 61.5607C165.805 62.6443 165.634 63.7909 165.634 65.0005C165.634 66.21 165.805 67.3565 166.147 68.4401C166.51 69.5236 166.992 70.4685 167.597 71.2749C168.201 72.0812 168.897 72.7112 169.682 73.1648C170.488 73.6184 171.354 73.8451 172.281 73.8451Z" fill="#2B385C"/>
  <path d="M186.95 78.1166C186.385 78.1166 185.973 78.0158 185.712 77.8142C185.469 77.6126 185.308 77.3354 185.227 76.9826C185.168 76.6047 185.136 76.2142 185.136 75.811V54.0013C185.136 53.5981 185.177 53.2329 185.259 52.9052C185.339 52.5525 185.5 52.2753 185.741 52.0736C186.004 51.8469 186.416 51.7334 186.98 51.7334H193.446C194.372 51.7334 195.248 51.9225 196.074 52.3005C196.921 52.6532 197.676 53.2076 198.34 53.9636C199.005 54.6943 199.528 55.6267 199.911 56.7606C200.315 57.8694 200.516 59.167 200.516 60.6538C200.516 61.6366 200.395 62.6193 200.154 63.602C199.911 64.5596 199.549 65.4543 199.066 66.2859C198.602 67.0922 198.008 67.7851 197.283 68.3646C196.558 68.9442 195.701 69.3222 194.715 69.4986H188.793V75.8487C188.793 76.2519 188.753 76.6299 188.673 76.9826C188.611 77.3354 188.451 77.6126 188.189 77.8142C187.947 78.0158 187.534 78.1166 186.95 78.1166ZM199.82 77.5495C199.236 78.0535 198.753 78.2426 198.37 78.1166C198.008 77.9906 197.646 77.5874 197.283 76.907L192.207 67.3063L196.285 66.6259L200.304 74.2612C200.586 74.7652 200.758 75.1936 200.818 75.5463C200.878 75.8991 200.828 76.2267 200.667 76.5291C200.505 76.8315 200.223 77.1716 199.82 77.5495ZM188.793 64.9628H193.898C194.262 64.9628 194.614 64.8872 194.956 64.736C195.318 64.5596 195.642 64.2951 195.923 63.9424C196.205 63.5643 196.427 63.1108 196.588 62.5816C196.77 62.0272 196.859 61.372 196.859 60.6161C196.859 59.7089 196.719 58.9403 196.438 58.3103C196.155 57.6551 195.752 57.1639 195.229 56.8362C194.726 56.4835 194.11 56.3071 193.386 56.3071H188.793V64.9628Z" fill="#2B385C"/>
</svg>