<svg xmlns="http://www.w3.org/2000/svg" width="31" height="31" viewBox="0 0 31 31" fill="none">
  <path fill-rule="evenodd" clip-rule="evenodd" d="M15.3945 1.1211C18.8773 1.11945 22.2569 2.25473 24.9762 4.33992C27.6355 6.39044 29.4834 9.25018 30.1802 12.3902C30.3948 13.3453 30.5027 14.3195 30.5023 15.2965C30.5023 19.1023 28.9766 22.677 26.2055 25.3662C23.4101 28.0761 19.6564 29.568 15.6365 29.568C14.2192 29.568 12.4105 29.2193 11.5412 28.9868C10.4953 28.7065 9.50394 28.3429 9.39476 28.3022C9.27923 28.2598 9.15659 28.238 9.03287 28.2376C8.89868 28.2368 8.76573 28.2621 8.642 28.3119L8.58472 28.3332L4.03649 29.9064C3.81314 29.9966 3.57446 30.0467 3.33225 30.0543C2.87391 30.0523 2.43511 29.8762 2.11209 29.5645C1.78906 29.2529 1.60817 28.8313 1.60906 28.392C1.61307 28.2251 1.64027 28.0594 1.68993 27.8992L2.93127 23.5941C2.98317 23.4352 2.92453 23.2776 2.84838 23.1484L2.83356 23.1226C2.82817 23.1142 2.8039 23.0806 2.78436 23.0548C2.76482 23.029 2.74527 23.0025 2.7264 22.976L2.7136 22.9586C1.14657 20.6825 0.311202 18.0156 0.311107 15.2888C0.298977 11.5694 1.8173 8.0528 4.58775 5.3894C7.45457 2.63686 11.2891 1.1211 15.3945 1.1211ZM15.4037 18.0006C16.7933 18.0006 17.9197 16.9212 17.9197 15.5896C17.9197 14.2579 16.7933 13.1784 15.4037 13.1784C14.0142 13.1784 12.8878 14.2579 12.8878 15.5896C12.8878 16.9212 14.0142 18.0006 15.4037 18.0006ZM22.3267 18.0006C23.7163 18.0006 24.8427 16.9212 24.8427 15.5896C24.8427 14.2579 23.7163 13.1784 22.3267 13.1784C20.9372 13.1784 19.8108 14.2579 19.8108 15.5896C19.8108 16.9212 20.9372 18.0006 22.3267 18.0006ZM11.0019 15.5897C11.0019 16.9213 9.87542 18.0009 8.48591 18.0009C7.09639 18.0009 5.96996 16.9213 5.96996 15.5897C5.96996 14.2582 7.09639 13.1786 8.48591 13.1786C9.87542 13.1786 11.0019 14.2582 11.0019 15.5897Z" fill="white"/>
</svg>