<svg xmlns="http://www.w3.org/2000/svg" width="178" height="84" viewBox="0 0 178 84" fill="none">
<path d="M0 33.5946C0 25.2235 4.85086 21 13.8057 21H39.9786V38.8927H37.838C36.9365 28.5015 32.6227 24.2298 23.8584 24.2298H18.4559C14.2498 24.2298 12.2057 26.4851 12.2057 30.9377V54.0623C12.2057 58.5149 14.2487 60.7702 18.4559 60.7702H23.8618C32.4971 60.7702 36.8905 56.2452 37.8368 45.5247H39.9775V64H13.8068C4.85197 64 0.00112244 59.7765 0.00112244 51.4054V33.5946H0Z" fill="#E71D1D"/>
<path d="M86.6201 21.0012V64H75.9766L49.8217 29.7676V45.1803C49.8217 56.518 54.0501 60.7221 63.5926 61.84V64H46.6416V21.0012H58.8842L83.4401 53.1496V39.6665C83.4401 28.4049 79.1936 24.1585 69.8866 23.16V21H86.6201V21.0012Z" fill="#E71D1D"/>
<path d="M93.2842 21H133.262V38.8927H131.122C130.216 28.4629 125.907 24.1827 117.143 24.1827H105.118V40.3074H109.191C115.993 40.3074 118.884 37.0246 119.572 29.9826H121.749V53.6184H119.572C118.888 46.5426 116.006 43.2839 109.191 43.2839H105.118V60.8185H117.147C125.783 60.8185 130.176 56.2802 131.122 45.5247H133.262V64H93.2842V21Z" fill="#E71D1D"/>
<path d="M178 21V38.8932H175.859C174.936 29.0505 171.111 24.4783 163.928 23.6473V53.8859C163.928 59.142 165.651 61.2441 171.958 61.6831V64H144.063V61.6831C150.371 61.2429 152.095 59.142 152.095 53.8859V23.6461C144.912 24.4771 141.087 29.0493 140.163 38.892H138.022V21H178Z" fill="#E71D1D"/>
</svg>