<svg xmlns="http://www.w3.org/2000/svg" width="212" height="56" viewBox="0 0 212 56" fill="none">
  <g clip-path="url(#clip0_90_253)">
    <path fill-rule="evenodd" clip-rule="evenodd" d="M7.78919 20.5112H15.3532C17.3979 20.5112 18.8603 20.0276 19.7422 19.0534C20.6922 18.169 21.1671 16.6278 21.1671 14.4446C21.1671 12.586 20.7296 11.0862 19.8482 9.96002C18.8229 8.99283 17.4728 8.50217 15.7912 8.50217H7.7828V20.5112H7.78919ZM7.78919 28.0221V38.7873C7.78919 41.0746 6.11398 42.9332 4.03823 42.9332H0V5.59354C0 4.38405 0.381353 3.34771 1.15639 2.5047C1.9191 1.6617 2.85672 1.22656 3.951 1.22656H16.785C20.8045 1.22656 23.8056 2.35983 25.7744 4.62585C27.8187 6.89238 28.8504 10.2437 28.8504 14.6864C28.8504 18.8873 27.8625 22.2043 25.8872 24.6223C23.9115 26.8888 21.0612 28.0221 17.329 28.0221H7.78919Z" fill="white"/>
    <path fill-rule="evenodd" clip-rule="evenodd" d="M56.5913 12.2666V29.1463C56.5913 34.9491 55.3121 38.4378 52.603 40.235C49.8879 42.0388 46.9155 42.9332 43.6927 42.9332C40.5384 42.7729 37.6602 41.7867 35.0581 39.9901C32.4556 38.1863 31.0698 34.7887 31.0698 29.1463V12.2666H38.7703V30.8666C38.7703 32.8307 39.278 34.2641 40.3128 35.1591C41.3411 36.0608 42.5137 36.5085 43.8305 36.5085C45.1474 36.5085 46.3453 36.0608 47.4049 35.1591C48.4644 34.2641 48.9974 32.8307 48.9974 30.8666V16.4403C48.9974 15.2938 49.3425 14.3153 50.0446 13.4971C50.7407 12.679 51.6376 12.2738 52.7413 12.2738L56.5913 12.2666Z" fill="white"/>
    <path fill-rule="evenodd" clip-rule="evenodd" d="M81.8074 1.22656C78.7995 1.22656 76.6443 1.91551 75.322 3.28583C73.9312 4.73942 73.2356 6.91578 73.2356 9.81591V42.9332H73.2416H80.7234V18.6394H81.8198C82.7661 18.6394 83.6118 18.2604 84.3451 17.4892C85.0719 16.7245 85.4416 15.7328 85.4416 14.527V12.7155H80.711V10.5392C80.711 9.56809 80.8928 8.9271 81.2624 8.60357C81.7009 8.28004 82.4341 8.12156 83.4617 8.12156H85.4416V1.22656H81.8074Z" fill="white"/>
    <path fill-rule="evenodd" clip-rule="evenodd" d="M87.828 53.7398L92.0544 47.1139H94.1641C95.6465 47.1139 96.8188 46.736 97.668 45.9667C98.5172 45.1979 98.688 43.9823 98.1685 42.2932L87.828 12.2666H96.388L102.395 33.0097L107.622 15.1572C108.066 13.2276 109.256 12.2666 111.177 12.2666H116.511L105.17 46.8598C104.283 49.5098 103.168 51.3981 101.831 52.5242C100.494 53.4857 98.3078 53.9732 95.2728 53.9732H94.4997H87.6609L87.828 53.7398Z" fill="white"/>
    <mask id="mask0_90_253" style="mask-type:luminance" maskUnits="userSpaceOnUse" x="116" y="0" width="95" height="56">
      <path d="M116.512 0H210.83V55.2H116.512V0Z" fill="white"/>
    </mask>
    <g mask="url(#mask0_90_253)">
      <path fill-rule="evenodd" clip-rule="evenodd" d="M201.665 50.1669C197.58 49.6387 192.295 47.0277 191.448 46.4878C183.213 41.2414 175.877 38.1488 161.812 44.8288C149.643 50.609 137.563 49.6843 129.487 43.8297C125.036 40.6023 122.911 36.3216 122.436 31.9964C122.016 28.173 123.479 24.9826 125.339 22.6485C130.691 15.9289 139.992 19.1122 139.992 19.1122L140.685 16.6713C140.805 16.2475 144.254 6.07416 153.191 6.52436C162.488 6.97962 165.784 18.9527 165.784 18.9527C165.784 18.9527 168.685 17.6163 172.341 17.8148C175.543 17.9885 179.321 19.372 182.299 23.4421C188.357 31.7214 183.698 40.7988 183.698 40.7988C183.698 40.7988 183.974 41.0657 184.74 40.1055C185.272 39.4371 186.256 37.855 187.078 35.6815C187.987 33.4999 188.497 31.0747 188.497 28.5168C188.497 19.0135 181.506 11.3094 172.883 11.3094C172.092 11.3094 171.316 11.3768 170.557 11.5024C170.201 11.5343 169.867 11.5723 169.559 11.6123C167.683 7.75342 163.499 0.51224 153.453 0.0205141C144.054 -0.444372 138.057 7.09205 135.832 12.4706C132.757 11.8179 126.682 11.9804 121.316 17.8806C118.139 21.3729 116.314 26.321 116.529 31.9964C116.787 38.8405 120.056 44.7843 126.24 49.2686C131.283 52.9248 137.812 55.2001 144.442 55.2001C150.653 55.2001 157.308 53.8794 164.149 50.808C178.054 44.5655 182.298 47.3189 188.221 50.2697C192.891 52.5962 197.131 53.73 201.152 53.2606C206.65 52.619 210.83 49.5537 210.83 49.5537C210.83 49.5537 206.844 50.8369 201.665 50.1669Z" fill="white"/>
    </g>
    <path fill-rule="evenodd" clip-rule="evenodd" d="M67.3824 1.22656C64.3745 1.22656 62.2193 1.91551 60.8969 3.28583C59.5062 4.73942 58.8105 6.91578 58.8105 9.81591V42.9332H58.8165H66.2983V18.6394H67.3948C68.3411 18.6394 69.1868 18.2604 69.9201 17.4892C70.6469 16.7245 71.0165 15.7328 71.0165 14.527V12.7155H66.2859V10.5392C66.2859 9.56809 66.4677 8.9271 66.8374 8.60357C67.2758 8.28004 68.0091 8.12156 69.0367 8.12156H71.0165V1.22656H67.3824Z" fill="white"/>
  </g>
  <defs>
    <clipPath id="clip0_90_253">
      <rect width="211.56" height="55.2" fill="white"/>
    </clipPath>
  </defs>
</svg>