<svg xmlns="http://www.w3.org/2000/svg" width="253" height="64" viewBox="0 0 253 64" fill="none">
  <path d="M14.6195 44.7568H6.58674V33.1775H0.320312V62.6293H6.58674V50.9996H14.6195V62.6293H20.0028V33.1775H14.6195V44.7568Z" fill="#FD6D6C"/>
  <path d="M153.995 62.6276H168.925V56.3848H159.378V50.9476H168.925V44.7048H159.378V39.3683H168.925V33.1255H153.995V62.6276Z" fill="#FD6D6C"/>
  <path d="M64.2426 52.6106C64.2426 55.0272 62.6445 56.9403 60.5837 56.9403C58.565 56.9403 57.051 55.0775 57.051 52.6106V33.1775H51.6677V52.2582C51.6677 58.9037 55.1164 63.032 60.6678 63.032C66.2193 63.032 69.6679 58.9037 69.6679 52.2582V33.1775H64.2847V52.6106" fill="#FD6D6C"/>
  <path d="M35.819 32.7749C28.8797 32.7749 23.2861 39.5715 23.2861 47.8784C23.2861 56.1853 28.9217 62.9819 35.819 62.9819C42.7583 62.9819 48.3939 56.1853 48.3939 47.8784C48.3939 39.5715 42.7583 32.7749 35.819 32.7749ZM35.819 56.6384C31.8657 56.6384 28.6273 52.7115 28.6273 47.9287C28.6273 43.0956 31.8657 39.2191 35.819 39.2191C39.8144 39.2191 43.0527 43.146 43.0527 47.9287C43.0107 52.7115 39.7723 56.6384 35.819 56.6384Z" fill="#FD6D6C"/>
  <path d="M239.454 45.5625V51.8053H246.73C245.804 54.8763 243.533 56.6887 240.631 56.6887C236.426 56.6887 233.272 52.9129 233.272 47.8784C233.272 43.0453 236.51 39.068 240.505 39.068C243.407 39.068 245.51 40.5784 246.898 43.6998L247.108 44.2032L251.819 40.7797L251.608 40.3266C249.379 35.5942 245.216 32.7749 240.463 32.7749C233.314 32.7749 227.93 39.2694 227.93 47.8784C227.93 56.4874 233.398 62.9819 240.674 62.9819C247.529 62.9819 252.702 56.6384 252.702 48.2811V45.5625H239.454Z" fill="#FD6D6C"/>
  <path d="M219.06 50.9492L209.681 33.1775H203.877V62.6293H209.261V44.203L218.976 62.6293H224.485V33.1775H219.102V50.9492" fill="#FD6D6C"/>
  <path d="M193.945 33.1775H199.328V62.6293H193.945V33.1775Z" fill="#FD6D6C"/>
  <path d="M134.819 62.6276H149.749V56.3848H140.202V50.9476H149.749V44.7048H140.202V39.3683H149.749V33.1255H134.819V62.6276Z" fill="#FD6D6C"/>
  <path d="M83.3817 44.7066L82.877 44.5053C80.3957 43.5487 78.8817 42.8439 78.8817 41.2832C78.8817 39.6721 79.9751 38.6653 81.6995 38.6653C83.3817 38.6653 84.6434 39.4708 85.5687 41.1321L85.821 41.5853L90.321 37.5073L89.9846 37.0542C88.2603 34.9397 85.9472 32.7749 81.6995 32.7749C76.9471 32.7749 73.3722 36.5004 73.3722 41.4846C73.3722 47.4756 77.4517 48.9859 80.3957 50.0935L80.7742 50.2446C83.0453 51.0501 84.9799 51.7549 84.9799 53.6177C84.9799 55.1784 84.0126 56.8397 81.8677 56.8397C79.9331 56.8397 78.2087 55.5308 77.1153 53.3156L76.8629 52.7618L71.9844 57.3935L72.2788 57.7963C74.8863 61.3204 78.0405 63.0825 81.9097 63.0825C86.1154 63.0825 90.5734 59.8101 90.5734 53.668C90.5313 47.4756 86.0313 45.7639 83.3817 44.7066Z" fill="#FD6D6C"/>
  <path d="M181.75 33.1775H173.17V62.6293H178.553V54.5237H181.708C186.754 54.5237 190.708 49.8417 190.708 43.8506C190.75 37.8596 186.796 33.1775 181.75 33.1775ZM178.553 39.2692H181.413C183.642 39.2692 185.282 41.1823 185.282 43.8506C185.282 46.5189 183.642 48.432 181.413 48.432H178.553V39.2692Z" fill="#FD6D6C"/>
  <path d="M93.8542 62.6276H108.784V56.3848H99.2795V50.9476H108.826V44.7048H99.2795V39.3683H108.826V33.1255H93.8963V62.6276" fill="#FD6D6C"/>
  <path d="M132.081 33.1775H125.436L118.413 43.6492V33.1775H113.03V62.6293H118.413V52.4093L120.348 49.4892L126.362 62.6293H132.502L124.175 44.8072L132.081 33.1775Z" fill="#FD6D6C"/>
  <path d="M178.174 15.1568C178.174 6.34641 172.959 0.456055 165.221 0.456055H158.324V29.9078H165.431C172.791 29.8575 178.174 23.6651 178.174 15.1568ZM164.674 6.49745C169.805 6.49745 172.749 9.66918 172.749 15.1568C172.749 20.3423 169.595 23.8161 164.843 23.8161H163.665V6.54779H164.674V6.49745Z" fill="#FD6D6C"/>
  <path d="M114.794 30.2585C121.733 30.2585 127.369 23.4619 127.369 15.155C127.369 6.79773 121.733 0.0515137 114.794 0.0515137C107.855 0.0515137 102.261 6.84808 102.261 15.155C102.219 23.4619 107.855 30.2585 114.794 30.2585ZM114.794 6.39497C118.789 6.39497 122.028 10.3219 122.028 15.1046C122.028 19.8874 118.789 23.8143 114.794 23.8143C110.841 23.8143 107.602 19.8874 107.602 15.1046C107.602 10.3219 110.799 6.39497 114.794 6.39497Z" fill="#FD6D6C"/>
  <path d="M142.349 0C135.409 0 129.816 6.79656 129.816 15.1035C129.816 23.4104 135.451 30.2069 142.349 30.2069C149.288 30.2069 154.923 23.4104 154.923 15.1035C154.923 6.79656 149.288 0 142.349 0ZM142.349 23.8635C138.395 23.8635 135.157 19.9366 135.157 15.1538C135.157 10.3711 138.395 6.44415 142.349 6.44415C146.344 6.44415 149.582 10.3711 149.582 15.1538C149.582 19.9366 146.344 23.8635 142.349 23.8635Z" fill="#FD6D6C"/>
  <path d="M87.757 30.2573C94.6122 30.2573 99.7851 23.9138 99.7851 15.5566V12.7876H86.5794V19.0304H93.8552C92.8879 22.1014 90.6589 23.9138 87.757 23.9138C83.5513 23.9138 80.3971 20.138 80.3971 15.1035C80.3971 10.2704 83.6354 6.29312 87.6308 6.29312C90.5327 6.29312 92.6355 7.80347 94.0234 10.9249L94.2337 11.4283L98.944 8.00485L98.7337 7.55174C96.5047 2.81932 92.3411 0 87.5887 0C80.4391 0 75.0557 6.4945 75.0557 15.1035C75.0138 23.7628 80.4812 30.2573 87.757 30.2573Z" fill="#FD6D6C"/>
</svg>