
<svg width="266" height="42" viewBox="0 0 266 42" fill="none" xmlns="http://www.w3.org/2000/svg">
<g clip-path="url(#clip0_160_7)">
<path d="M195.573 10.1093C196.467 10.4764 197.302 10.9759 198.048 11.591L197.054 12.8382C196.428 12.3144 195.722 11.8934 194.963 11.591C194.233 11.3285 193.46 11.2014 192.684 11.2159C191.743 11.191 190.81 11.3866 189.958 11.7872C189.106 12.1878 188.36 12.7822 187.78 13.5228C186.529 15.0607 185.904 17.4302 185.904 20.6311C185.852 22.4155 186.149 24.1928 186.776 25.8639C187.235 27.1247 188.066 28.2167 189.158 28.9961C190.174 29.6727 191.37 30.0258 192.59 30.0089C193.475 30.0348 194.355 29.8817 195.179 29.5588C195.955 29.2184 196.68 28.7735 197.336 28.2365L198.273 29.4556C196.718 30.9251 194.645 31.7206 192.506 31.6688C190.929 31.694 189.381 31.2465 188.061 30.384C186.698 29.4589 185.635 28.1549 185.004 26.6329C184.217 24.7324 183.84 22.6873 183.897 20.6311C183.839 18.5704 184.233 16.5219 185.051 14.6294C185.706 13.108 186.783 11.8063 188.155 10.8783C189.457 10.0323 190.981 9.59171 192.534 9.61226C193.559 9.58899 194.579 9.75429 195.544 10.0999" fill="#AD3B4D"/>
<path d="M202.316 30.8904C202.042 30.5757 201.832 30.2098 201.701 29.8139C201.569 29.4179 201.516 28.9998 201.547 28.5835V8.37438L203.357 8.15869V28.5179C203.357 29.5775 203.797 30.1027 204.67 30.1027C205.053 30.1157 205.435 30.0419 205.786 29.887L206.311 31.228C205.729 31.5202 205.086 31.6712 204.435 31.6688C204.05 31.6898 203.665 31.6316 203.304 31.4977C202.943 31.3638 202.613 31.1571 202.335 30.8904" fill="#AD3B4D"/>
<path d="M218.23 27.3363V22.8443H215.417C214.083 22.7467 212.753 23.0751 211.619 23.7821C211.178 24.12 210.828 24.5612 210.599 25.0666C210.37 25.572 210.27 26.1261 210.306 26.6798C210.279 27.1522 210.349 27.625 210.51 28.0698C210.671 28.5146 210.921 28.9222 211.243 29.2681C211.581 29.587 211.979 29.8345 212.414 29.9956C212.849 30.1568 213.312 30.2283 213.775 30.2059C214.723 30.2108 215.653 29.944 216.454 29.4371C217.255 28.9302 217.894 28.2044 218.296 27.3456M220.377 29.5494C220.625 29.9364 220.995 30.23 221.428 30.384L221.025 31.6688C220.374 31.5693 219.769 31.275 219.29 30.8248C218.839 30.2954 218.561 29.641 218.493 28.9492C217.978 29.8289 217.232 30.5504 216.336 31.035C215.44 31.5196 214.427 31.7485 213.41 31.6969C212.737 31.7341 212.065 31.6354 211.431 31.4066C210.798 31.1778 210.218 30.8236 209.724 30.3653C209.264 29.903 208.906 29.3498 208.672 28.741C208.437 28.1322 208.333 27.4813 208.365 26.8299C208.326 26.0847 208.469 25.3413 208.781 24.6635C209.093 23.9856 209.565 23.3936 210.156 22.9381C211.614 21.9404 213.362 21.4555 215.126 21.5596H218.249V19.9466C218.332 18.9314 218.019 17.9234 217.377 17.1332C216.976 16.7986 216.512 16.5474 216.013 16.3945C215.514 16.2415 214.989 16.1898 214.469 16.2424C212.951 16.2964 211.453 16.6137 210.043 17.1801L209.584 15.8016C211.219 15.1032 212.973 14.7213 214.751 14.6763C218.308 14.6763 220.087 16.4018 220.087 19.8528V27.702C220.037 28.3439 220.147 28.988 220.406 29.5775" fill="#AD3B4D"/>
<path d="M232.85 14.8637L232.503 16.5799C232.036 16.4507 231.553 16.3876 231.068 16.3923C230.562 16.3746 230.058 16.4737 229.597 16.6818C229.135 16.89 228.727 17.2016 228.405 17.5927C227.582 18.71 227.004 19.9881 226.708 21.3438V31.3217H224.898V15.0044H226.454L226.614 18.6524C226.921 17.5054 227.541 16.4664 228.405 15.6515C229.196 15.0042 230.197 14.6704 231.218 14.7137C231.765 14.7035 232.311 14.7666 232.841 14.9013" fill="#AD3B4D"/>
<path d="M237.811 31.3218H236.001V15.0045H237.811V31.3218ZM237.867 8.22435C238.11 8.47608 238.246 8.81228 238.246 9.16213C238.246 9.51198 238.11 9.84817 237.867 10.0999C237.736 10.2278 237.581 10.3271 237.409 10.3917C237.238 10.4563 237.056 10.4846 236.873 10.475C236.7 10.4791 236.527 10.4479 236.366 10.3835C236.205 10.319 236.058 10.2225 235.935 10.0999C235.692 9.84817 235.557 9.51198 235.557 9.16213C235.557 8.81228 235.692 8.47608 235.935 8.22435C236.058 8.10171 236.205 8.00525 236.366 7.94078C236.527 7.87631 236.7 7.84517 236.873 7.84924C237.056 7.83963 237.238 7.868 237.409 7.93256C237.581 7.99713 237.736 8.09649 237.867 8.22435Z" fill="#AD3B4D"/>
<path d="M251.183 30.6372C250.171 31.3154 248.978 31.6747 247.76 31.6687C247.221 31.698 246.681 31.6148 246.176 31.4243C245.671 31.2337 245.211 30.9401 244.825 30.5621C244.068 29.675 243.688 28.5276 243.765 27.3643V16.4861H241.008V15.0044H243.746V11.1221L245.556 10.9064V15.0044H249.767L249.542 16.4674H245.556V27.2518C245.498 28.0115 245.707 28.7677 246.147 29.3899C246.378 29.6331 246.66 29.8217 246.974 29.9417C247.287 30.0618 247.623 30.1104 247.957 30.0839C248.837 30.0709 249.698 29.825 250.451 29.3712L251.183 30.6372Z" fill="#AD3B4D"/>
<path d="M260.12 31.3874C259.763 32.4766 259.281 33.5212 258.686 34.5008C258.171 35.3142 257.478 36.0004 256.66 36.5076C255.676 37.0998 254.587 37.4977 253.453 37.6798L253.265 36.2825C254.16 36.0828 255.017 35.7442 255.807 35.2791C256.403 34.8904 256.904 34.3709 257.27 33.7599C257.722 32.9747 258.093 32.1451 258.376 31.2842H257.748L252.074 15.0044H254.044L258.967 30.0088L263.796 15.0044H265.672L260.12 31.3874Z" fill="#AD3B4D"/>
<path d="M76.5693 31.3218H72.5463L71.993 22.3098C71.8054 19.0932 71.7117 16.5331 71.7117 14.6481V13.5228L67.7824 28.9867H63.8813L59.7081 13.4947C59.7081 14.8638 59.7738 15.9047 59.7738 16.6081C59.7738 18.4836 59.7113 20.428 59.5862 22.441L59.0798 31.3218H55.0662L56.7729 9.75293H62.0807L65.9068 24.8418L69.5267 9.75293H74.8907L76.5693 31.3218Z" fill="#AD3B4D"/>
<path d="M88.1509 26.8673V23.5288H86.5004C83.9246 23.5288 82.6336 24.4853 82.6274 26.3984C82.5756 27.0779 82.7909 27.7508 83.2276 28.2739C83.4545 28.5016 83.7277 28.6779 84.0285 28.7912C84.3294 28.9044 84.6511 28.9519 84.9718 28.9304C85.6431 28.9248 86.2989 28.7277 86.8621 28.3622C87.4252 27.9968 87.8724 27.4781 88.1509 26.8673ZM92.3709 28.3771C92.6003 28.7057 92.9289 28.9522 93.3086 29.0804L92.4646 31.7249C91.6583 31.6821 90.8739 31.4474 90.1765 31.0404C89.5494 30.6306 89.0723 30.0284 88.8167 29.3242C88.2985 30.1275 87.5727 30.7755 86.7161 31.1998C85.8362 31.6123 84.8745 31.8206 83.9028 31.8093C83.1915 31.8471 82.4799 31.7421 81.8099 31.5005C81.1399 31.2589 80.5251 30.8856 80.0016 30.4027C79.5209 29.9227 79.1452 29.3481 78.8982 28.7153C78.6512 28.0825 78.5384 27.4053 78.5668 26.7266C78.5254 25.9352 78.6821 25.1459 79.0227 24.4303C79.3633 23.7148 79.877 23.0954 80.5174 22.6285C82.178 21.5785 84.1265 21.0766 86.0878 21.1937H88.1509V20.2559C88.1939 19.8533 88.1509 19.4462 88.0248 19.0614C87.8987 18.6767 87.6924 18.3231 87.4194 18.024C86.7342 17.5413 85.9008 17.3155 85.0656 17.3863C83.5716 17.4409 82.0961 17.7354 80.6956 18.2585L79.7578 15.5483C81.6625 14.79 83.6908 14.3894 85.7408 14.3667C89.9608 14.3667 92.0708 16.2579 92.0708 20.0402V26.961C92.0353 27.4508 92.1359 27.9409 92.3615 28.3771" fill="#AD3B4D"/>
<path d="M105.725 30.5433C105.13 30.9595 104.471 31.2762 103.774 31.4811C103.061 31.6862 102.322 31.7903 101.58 31.7906C100.901 31.8289 100.222 31.7253 99.5861 31.4863C98.9499 31.2473 98.3705 30.8782 97.8851 30.4026C96.9572 29.2827 96.494 27.8495 96.5909 26.3983V17.6958H94.0027V14.8262H96.5909V11.1876L100.576 10.7188V14.8262H104.412L104.009 17.6958H100.576V26.3046C100.523 26.9165 100.671 27.5291 100.998 28.0488C101.164 28.2347 101.37 28.3791 101.602 28.4703C101.833 28.5615 102.083 28.5971 102.33 28.574C103.023 28.5477 103.698 28.3443 104.29 27.9832L105.725 30.5433Z" fill="#AD3B4D"/>
<path d="M117.616 30.5433C117.022 30.9617 116.363 31.2786 115.665 31.4811C114.952 31.6875 114.213 31.7917 113.471 31.7906C112.793 31.8278 112.114 31.7236 111.478 31.4847C110.842 31.2458 110.262 30.8773 109.776 30.4027C108.862 29.2771 108.412 27.8446 108.52 26.3984V17.6958H105.969V14.8262H108.557V11.1876L112.543 10.7188V14.8262H116.378L115.975 17.6958H112.533V26.3046C112.48 26.9165 112.628 27.5291 112.955 28.0488C113.119 28.234 113.324 28.378 113.554 28.4692C113.783 28.5604 114.031 28.5963 114.277 28.574C114.973 28.5464 115.651 28.3431 116.247 27.9832L117.616 30.5433Z" fill="#AD3B4D"/>
<path d="M129.319 14.6106L128.634 18.4742C128.156 18.3531 127.665 18.2901 127.172 18.2867C126.732 18.2691 126.294 18.3549 125.893 18.5373C125.492 18.7197 125.14 18.9936 124.865 19.337C124.191 20.2829 123.734 21.3648 123.524 22.5067V31.3218H119.538V14.8263H122.998L123.364 18.071C123.678 17.0223 124.271 16.0788 125.08 15.3421C125.801 14.7268 126.721 14.3937 127.669 14.4043C128.226 14.3999 128.781 14.4725 129.319 14.62" fill="#AD3B4D"/>
<path d="M140.722 21.5689C140.722 18.6805 139.644 17.2363 137.506 17.2363C137.066 17.2173 136.627 17.3054 136.229 17.4933C135.83 17.6812 135.483 17.9631 135.218 18.3148C134.567 19.3442 134.225 20.5386 134.233 21.7564H140.722V21.5689ZM144.586 24.3822H134.271C134.266 25.6381 134.708 26.8547 135.518 27.8145C135.895 28.1634 136.338 28.4335 136.821 28.6091C137.305 28.7846 137.818 28.8619 138.331 28.8366C139.035 28.8443 139.734 28.7235 140.394 28.4803C141.122 28.1973 141.812 27.8256 142.448 27.3737L144.098 29.6525C142.387 31.0844 140.225 31.868 137.994 31.8657C136.914 31.9323 135.834 31.7601 134.829 31.3614C133.824 30.9626 132.919 30.3471 132.179 29.5587C130.737 27.7858 130.008 25.5387 130.135 23.2569C130.11 21.703 130.407 20.1608 131.007 18.7274C131.532 17.4589 132.407 16.366 133.53 15.5765C134.97 14.6745 136.673 14.2882 138.362 14.4807C140.05 14.6732 141.623 15.4331 142.823 16.6361C144.172 18.3813 144.839 20.5584 144.699 22.7598C144.699 22.9661 144.699 23.5101 144.605 24.3822" fill="#AD3B4D"/>
<path d="M158.99 16.3267L157.424 18.6618C156.199 17.8279 154.761 17.3625 153.279 17.3207C152.621 17.2738 151.965 17.4346 151.404 17.7802C151.201 17.9073 151.033 18.0844 150.919 18.2946C150.804 18.5048 150.745 18.741 150.747 18.9806C150.734 19.3159 150.833 19.646 151.029 19.9184C151.302 20.2336 151.65 20.4754 152.041 20.6217C152.747 20.9122 153.47 21.1565 154.208 21.3532C155.661 21.6595 157.023 22.3018 158.184 23.2287C158.624 23.6537 158.968 24.1685 159.191 24.7381C159.414 25.3077 159.512 25.9188 159.478 26.5297C159.513 27.2864 159.353 28.0394 159.015 28.7172C158.677 29.3951 158.171 29.9753 157.546 30.4028C156.079 31.3657 154.349 31.8506 152.595 31.7907C151.335 31.8086 150.083 31.5956 148.9 31.1624C147.837 30.7793 146.856 30.1968 146.011 29.4462L147.981 27.1955C149.257 28.2186 150.837 28.7892 152.473 28.8179C153.223 28.855 153.967 28.669 154.611 28.2834C154.859 28.1302 155.063 27.9144 155.201 27.6576C155.339 27.4007 155.407 27.112 155.399 26.8204C155.421 26.4213 155.319 26.025 155.108 25.6857C154.829 25.3441 154.463 25.0848 154.048 24.9355C153.265 24.6294 152.467 24.3633 151.657 24.1384C150.276 23.857 148.997 23.2092 147.953 22.2628C147.563 21.8552 147.258 21.3742 147.055 20.8479C146.852 20.3215 146.756 19.7602 146.771 19.1963C146.762 18.3108 147.038 17.4459 147.559 16.7299C148.139 15.9634 148.917 15.3699 149.809 15.0138C150.863 14.5844 151.992 14.3739 153.129 14.3949C155.25 14.3581 157.318 15.05 158.99 16.3548" fill="#AD3B4D"/>
<path d="M173.704 16.3267L172.147 18.6618C170.922 17.8289 169.484 17.3636 168.002 17.3208C167.344 17.2726 166.688 17.4334 166.127 17.7803C165.922 17.9059 165.754 18.0828 165.639 18.2933C165.524 18.5038 165.466 18.7407 165.47 18.9806C165.457 19.3159 165.556 19.6461 165.752 19.9184C166.025 20.2336 166.374 20.4754 166.764 20.6217C167.47 20.9122 168.194 21.1565 168.931 21.3532C170.384 21.6596 171.746 22.3019 172.907 23.2288C173.347 23.6537 173.691 24.1685 173.914 24.7381C174.137 25.3078 174.235 25.9188 174.201 26.5297C174.225 27.2893 174.055 28.0425 173.705 28.7173C173.355 29.3921 172.838 29.9659 172.204 30.384C170.736 31.3459 169.006 31.8306 167.252 31.7719C165.992 31.7898 164.74 31.5769 163.557 31.1436C162.494 30.7605 161.514 30.1781 160.669 29.4275L162.704 27.1956C163.98 28.2199 165.56 28.7906 167.196 28.8179C167.943 28.856 168.684 28.6698 169.325 28.2834C169.576 28.1329 169.782 27.9178 169.923 27.6606C170.063 27.4033 170.132 27.1132 170.122 26.8204C170.141 26.4203 170.036 26.0239 169.822 25.6857C169.545 25.342 169.178 25.0822 168.762 24.9355C167.982 24.6291 167.187 24.363 166.38 24.1384C164.999 23.857 163.72 23.2092 162.676 22.2629C162.283 21.8569 161.975 21.3765 161.771 20.8498C161.566 20.3232 161.469 19.761 161.485 19.1963C161.474 18.3092 161.754 17.4429 162.282 16.73C162.855 15.9582 163.631 15.3608 164.523 15.0045C165.576 14.5751 166.706 14.3645 167.843 14.3855C169.964 14.3473 172.033 15.0393 173.704 16.3455" fill="#AD3B4D"/>
<mask id="mask0_160_7" style="mask-type:luminance" maskUnits="userSpaceOnUse" x="0" y="0" width="46" height="42">
<path d="M45.332 0H0V41.6279H45.332V0Z" fill="white"/>
</mask>
<g mask="url(#mask0_160_7)">
<path d="M22.6649 3.95746e-06C18.4024 -0.00251493 14.2257 1.19745 10.6145 3.46204C7.0033 5.72664 4.1042 8.964 2.25023 12.8022C0.396262 16.6404 -0.337368 20.9238 0.133623 25.1602C0.604614 29.3966 2.26112 33.4142 4.91284 36.7515C5.28748 37.2339 5.76634 37.6253 6.31361 37.8965C6.86088 38.1677 7.46239 38.3116 8.07314 38.3176C8.61241 38.3192 9.14599 38.2074 9.63923 37.9893C10.0197 37.7476 10.3748 37.468 10.6989 37.1547C12.0256 35.7734 13.1581 34.2181 14.0655 32.5315C14.3281 32.1095 14.5813 31.6781 14.8251 31.2561C15.0704 30.863 15.3463 30.4898 15.6504 30.1402C16.1633 29.5193 16.7634 28.976 17.4321 28.5272C17.6572 28.3834 17.8916 28.2521 18.1355 28.1333C18.3043 28.0489 18.4824 27.9833 18.6512 27.9176C19.0782 27.7678 19.5225 27.6732 19.9735 27.6363C20.1265 27.6269 20.28 27.6269 20.433 27.6363C22.1314 27.7247 23.7574 28.3521 25.075 29.4274C25.075 29.4274 29.0699 32.4002 30.9455 33.76L33.9182 35.9169C33.9182 35.9169 34.0214 35.3448 34.1433 34.332C34.1433 34.332 34.1433 34.2382 34.1433 34.1913C34.3027 32.8222 34.4903 30.7028 34.5278 28.1239V28.0489C34.5451 27.423 34.5231 26.7966 34.4621 26.1734C33.9564 25.4027 33.6001 24.5437 33.4118 23.6414C32.6991 20.5467 34.0308 18.5023 27.7852 14.695C26.5148 13.9872 25.1764 13.4091 23.7903 12.9695C23.0657 12.7717 22.3188 12.6677 21.5677 12.66C17.1696 12.66 14.5813 16.2986 9.62985 16.88C9.4248 14.5287 9.09297 12.1903 8.63581 9.87479C8.63118 9.80923 8.63118 9.74342 8.63581 9.67786C8.63581 9.42915 8.73461 9.19062 8.91047 9.01475C9.08634 8.83888 9.32487 8.74008 9.57358 8.74008C9.63265 8.73136 9.69269 8.73136 9.75176 8.74008L11.4022 9.06831C15.0252 9.81373 18.7129 10.2001 22.4117 10.2218C26.1244 10.2217 29.8279 9.85418 33.4681 9.12457L35.128 8.79635C35.187 8.7872 35.2471 8.7872 35.3061 8.79635C35.4391 8.80238 35.5694 8.83666 35.6881 8.89692C35.8068 8.95717 35.9114 9.04202 35.9947 9.14582C36.0781 9.24962 36.1385 9.36998 36.1717 9.49891C36.205 9.62783 36.2104 9.76236 36.1876 9.89355C35.6521 12.4167 35.2887 14.9734 35.0998 17.5458C35.3042 17.6761 35.4734 17.8545 35.5928 18.0654C35.7121 18.2763 35.7779 18.5133 35.7844 18.7555C35.9366 19.3092 36.1705 19.837 36.4784 20.3216C36.6284 20.5748 36.7691 20.8374 36.9004 21.0718C37.0655 21.3669 37.1916 21.6821 37.2755 22.0096C37.3115 22.7721 37.2644 23.5362 37.1348 24.2884C37.0779 24.8309 36.9744 25.3674 36.8253 25.892C36.8253 26.1171 36.9941 27.5706 37.2004 28.8273C37.388 29.8963 37.5943 31.228 37.7537 32.5784C37.8663 33.5161 37.9507 34.4539 37.9882 35.3917C37.9882 35.8606 37.9882 36.3295 37.9882 36.7515C37.9801 37.4382 37.9079 38.1226 37.7725 38.7958V38.9271C37.6694 39.3982 37.4353 39.8305 37.0973 40.1744C40.7034 37.2095 43.3061 33.2034 44.5497 28.7036C45.7932 24.2037 45.6169 19.4297 44.0449 15.0338C42.4729 10.6379 39.5819 6.83469 35.7669 4.14383C31.9519 1.45298 27.3991 0.00577847 22.7306 3.95746e-06H22.6649ZM21.0238 18.8306H21.2864C21.5983 18.8348 21.9031 18.9245 22.1676 19.0898C22.4322 19.2552 22.6463 19.4898 22.7868 19.7683C23.1301 19.9036 23.4808 20.0195 23.8371 20.1153L24.1935 20.1997C24.7609 20.3203 25.339 20.3832 25.919 20.3873C27.2488 20.4192 28.5569 20.0464 29.6701 19.3182C29.8858 22.3097 29.0137 23.2287 28.601 23.9039C28.1851 24.7242 28.085 25.6686 28.3197 26.5578C28.4416 27.0549 28.451 27.2706 28.0946 27.2706C27.7951 27.2498 27.4992 27.1931 27.2131 27.1018C27.1413 27.0966 27.0693 27.0966 26.9974 27.1018C26.7724 27.1018 26.491 27.2143 26.2941 27.7019C26.23 27.8655 26.1829 28.0352 26.1534 28.2083C26.1534 28.3865 26.1066 28.5084 26.0878 28.6116C25.4689 28.1708 24.6155 27.58 23.6496 26.9611L23.0775 26.5954L22.8337 26.4453C22.2429 26.1969 21.7653 25.7381 21.4933 25.1577C21.2213 24.5774 21.1743 23.9168 21.3614 23.3038C21.2522 23.3377 21.1382 23.3535 21.0238 23.3506C20.8119 23.3515 20.604 23.293 20.4236 23.1818C20.249 23.0817 20.096 22.9478 19.9735 22.788C19.6014 22.2542 19.4257 21.608 19.4765 20.9593C19.4755 20.6373 19.5393 20.3184 19.664 20.0215C19.7014 19.9203 19.7485 19.8229 19.8047 19.7308C19.8029 19.709 19.8029 19.687 19.8047 19.6652C19.9498 19.4236 20.1448 19.2158 20.3768 19.0556C20.5593 18.951 20.7596 18.8811 20.9676 18.8493L21.0238 18.8306Z" fill="#AD3B4D"/>
<path d="M18.7556 34.5195C16.8477 34.5779 14.9756 35.0515 13.2696 35.9074C12.3318 36.3388 11.4503 37.0703 10.5312 37.5673C12.9748 36.4658 15.6482 35.9704 18.3242 36.1231C22.2722 36.5357 24.3353 38.205 27.1205 39.6961C28.8835 40.6338 30.806 41.6279 32.8785 41.6279C34.1382 41.619 35.3687 41.2479 36.4233 40.5588C36.0635 40.6933 35.682 40.7601 35.2979 40.7557C33.3192 40.7557 30.6091 39.3772 28.8835 38.4301C26.0702 36.9109 22.4035 34.5195 18.7556 34.5195Z" fill="#AD3B4D"/>
</g>
</g>
<defs>
<clipPath id="clip0_160_7">
<rect width="266" height="41.6279" fill="white"/>
</clipPath>
</defs>
</svg>
