<svg xmlns="http://www.w3.org/2000/svg" width="31" height="31" viewBox="0 0 31 31" fill="none">
<path d="M24.7846 28.12H24.4875C20.7351 27.7067 17.1306 26.4241 13.9605 24.3742C11.0225 22.5067 8.52748 20.0205 6.64966 17.0892C4.58985 13.9002 3.30687 10.2724 2.90382 6.49753C2.86772 6.0345 2.92483 5.56893 3.07174 5.12836C3.22474 4.69453 3.46176 4.2951 3.76924 3.95294C4.07929 3.61432 4.45798 3.3457 4.88007 3.16503C5.28529 2.97888 5.72579 2.88197 6.17174 2.88086H9.71091C10.5259 2.88154 11.3156 3.16454 11.9455 3.68169C12.5343 4.21277 12.9144 4.93637 13.0175 5.72252C13.1475 6.77827 13.4034 7.81468 13.7796 8.80961C14.0045 9.40124 14.0533 10.0453 13.9204 10.6641C13.7875 11.2829 13.4784 11.85 13.0305 12.2971L12.0747 13.2142C13.5057 15.498 15.4354 17.4278 17.7192 18.8588L18.675 17.903C19.1328 17.4803 19.702 17.1978 20.3155 17.0892C20.9322 16.9611 21.5726 17.0103 22.1625 17.2313C23.1535 17.6061 24.1854 17.8619 25.2367 17.9934C26.0388 18.1067 26.7717 18.5094 27.2974 19.1255C27.8233 19.7418 28.1056 20.5289 28.0913 21.3388V24.8392C28.0908 25.5314 27.8738 26.2061 27.4708 26.7688C27.0678 27.3316 26.4989 27.7544 25.8438 27.978C25.5007 28.0822 25.1431 28.1301 24.7846 28.12ZM9.73674 4.81836H6.21049C6.0193 4.81828 5.83017 4.85786 5.65507 4.93461C5.48347 5.01527 5.32977 5.12946 5.20299 5.27044C5.07257 5.40563 4.97529 5.56922 4.91882 5.74836C4.85427 5.93048 4.82788 6.12394 4.84132 6.31669C5.22426 9.7676 6.40018 13.0831 8.27716 16.0042C10.0063 18.7084 12.3025 21.0046 15.0067 22.7338C17.9247 24.6008 21.2368 25.7637 24.6813 26.1309C24.8647 26.1537 25.051 26.1315 25.2238 26.0663C25.4047 26.0052 25.5716 25.9086 25.7146 25.7821C25.8554 25.6528 25.9656 25.4941 26.0375 25.3171C26.1046 25.166 26.144 25.0042 26.1538 24.8392V21.2613C26.1697 20.9252 26.0539 20.5962 25.8309 20.3442C25.6095 20.0948 25.308 19.9304 24.9784 19.8792C23.7858 19.7227 22.6154 19.4279 21.4909 19.0009C21.2374 18.9297 20.9693 18.9297 20.7159 19.0009C20.4608 19.051 20.2266 19.1771 20.0442 19.3625L18.5588 20.848C18.4099 20.9992 18.2147 21.0966 18.0041 21.1246C17.7936 21.1528 17.5798 21.1099 17.3963 21.003C14.311 19.2402 11.762 16.6733 10.0209 13.5759C9.91393 13.3925 9.87109 13.1786 9.89915 12.968C9.92722 12.7575 10.0246 12.5624 10.1759 12.4134L11.6613 10.9279C11.8506 10.7446 11.9793 10.5077 12.0301 10.2491C12.0809 9.99054 12.0514 9.72261 11.9455 9.48127C11.5315 8.34996 11.2456 7.17583 11.093 5.98086C11.041 5.66954 10.8849 5.38506 10.6503 5.17392C10.4157 4.96277 10.1164 4.83742 9.80132 4.81836H9.73674Z" fill="white"/>
</svg>