<svg xmlns="http://www.w3.org/2000/svg" width="225" height="73" viewBox="0 0 225 73" fill="none">
  <g clip-path="url(#clip0_160_29)">
    <path d="M224.828 0H0.976807V64.0469H224.828V0Z" fill="#00549F"/>
    <path d="M33.9247 63.0049C26.01 63.0049 20.074 58.6182 20.074 47.7061V15.7375H27.018V46.8287C27.018 51.7638 29.5193 54.6152 34.074 54.6152C38.0687 54.6152 40.8687 51.709 40.8687 46.8836V15.7375H47.8127V48.3092C47.8127 58.1246 42.026 63.0049 33.9247 63.0049Z" fill="white"/>
    <path d="M52.2925 52.9155H46.0952V62.4019H52.2925V52.9155Z" fill="white"/>
    <path d="M67.3753 63.0598C57.7806 63.0598 54.3086 58.7827 53.0393 52.9154C52.7033 51.3801 52.5913 49.077 52.5913 48.1448H59.7593C59.7593 48.9673 59.946 50.393 60.2073 51.1059C61.1033 53.8476 63.194 54.9991 67.4126 54.9991C72.2286 54.9991 73.946 53.0799 73.946 49.9543C73.946 46.1159 72.602 44.745 67.4873 43.3741C66.554 43.1548 64.2393 42.4968 62.8206 42.0582C56.6233 40.3583 52.8153 36.1909 52.8153 28.4044C52.8153 20.5082 57.146 15.1892 66.4793 15.1892C74.4313 15.1892 78.202 19.247 79.77 25.1691C80.1806 26.7045 80.5166 28.4591 80.5166 29.6655H73.3486C73.3486 29.1171 73.162 28.0753 72.9006 27.3625C72.042 24.7853 70.3246 23.4144 66.2926 23.4144C61.0286 23.4144 59.9833 25.1143 59.9833 27.8012C59.9833 31.2558 61.8873 32.5718 67.0766 34.1072C68.682 34.6007 70.7726 35.2038 71.482 35.4231C77.7913 37.1778 81.0766 41.0163 81.0766 49.0222C81.0766 57.357 76.522 63.0598 67.3753 63.0598Z" fill="white"/>
    <path d="M85.6685 52.9155H79.4712V62.4019H85.6685V52.9155Z" fill="white"/>
    <path d="M107.247 62.4017L94.442 30.817V62.4017H87.834V15.7375H95.898L108.143 45.7869V15.7375H114.751V62.4017H107.247Z" fill="white"/>
    <path d="M138.832 59.8245C136.778 61.7437 133.941 62.95 130.133 62.95C124.944 62.95 120.725 60.7018 118.448 55.4377C117.29 52.7508 116.656 49.2962 116.656 44.9643C116.656 41.0162 117.402 37.5068 118.709 34.7651C120.949 29.9396 125.018 27.1431 130.133 27.1431C135.509 27.1431 139.168 29.9945 141.258 34.4909C143.013 38.2197 143.648 43.2096 143.274 48.364H123.413C123.413 49.9542 123.898 51.1058 124.682 52.4218C125.653 54.012 127.594 54.999 130.133 54.999C132.037 54.999 133.456 54.5055 134.426 53.9023C135.658 53.0798 136.256 51.9831 136.368 51.2154H143.05C142.528 54.5055 141.184 57.6311 138.832 59.8245ZM135.322 37.8906C134.352 36.4649 132.709 35.2586 130.17 35.2586C127.744 35.2586 125.952 36.1908 124.794 37.7261C123.973 38.768 123.338 40.8517 123.338 41.8387H136.442C136.48 40.7969 136.181 39.2067 135.322 37.8906Z" fill="white"/>
    <path d="M176.613 62.4018H168.549C168.549 62.4018 163.957 42.6065 163.882 41.5098C163.845 41.0711 163.583 39.0423 163.583 39.0423C163.583 39.0423 163.322 41.0711 163.285 41.455C163.247 42.6613 158.618 62.4018 158.618 62.4018H150.517L142.117 27.9657H149.247L154.885 53.5734L160.037 27.9657H167.615L172.917 53.5734L178.405 27.9657H185.087L176.613 62.4018Z" fill="white"/>
    <path d="M197.594 63.0052C189.68 63.0052 185.909 60.7021 184.938 55.0541C184.714 53.6833 184.677 52.7511 184.677 51.5995H191.434C191.434 52.0382 191.472 52.6414 191.658 53.3543C192.069 54.9993 193.861 55.438 197.594 55.438C201.477 55.438 202.672 54.451 202.672 52.4221C202.672 50.448 201.253 50.0093 197.818 49.2965C196.922 49.132 194.122 48.474 192.704 48.1998C187.552 47.1579 185.088 43.813 185.088 37.2328C185.088 31.0913 188.821 27.0884 196.362 27.0884C202.784 27.0884 206.853 29.5559 208.048 34.4911C208.346 35.8071 208.458 37.9457 208.458 38.6037H201.85C201.85 38.2198 201.738 37.178 201.552 36.7393C201.066 35.8071 199.834 34.9846 196.624 34.9846C192.89 34.9846 191.77 35.8619 191.77 37.507C191.77 38.9875 192.517 39.5907 195.84 40.3036C197.184 40.5777 200.469 41.2906 201.29 41.5099C206.89 42.7711 209.392 45.8419 209.392 52.2576C209.354 59.3861 205.696 63.0052 197.594 63.0052Z" fill="white"/>
    <path d="M122.368 22.0435C122.555 21.6597 122.704 21.1662 122.704 20.6178H124.496C124.459 21.7693 124.16 22.8112 123.637 23.524C124.048 23.9627 124.533 24.5111 125.019 25.0594H122.592C122.48 24.9497 122.405 24.7852 122.293 24.6756C121.808 25.0046 121.136 25.1143 120.539 25.1143C119.008 25.1143 117.664 24.7304 117.589 22.9757V22.4822C117.589 21.4403 118.299 20.7823 119.045 20.234C118.672 19.4663 118.523 18.8083 118.523 18.2599V17.7664C118.56 16.6149 119.344 15.5182 120.651 15.5182C121.883 15.5182 122.555 16.56 122.629 17.7116V18.1503C122.629 19.3566 121.995 20.1791 121.36 20.7275C121.659 21.1113 121.995 21.6048 122.368 22.0435ZM119.493 22.6467C119.493 23.0854 119.792 23.2499 120.427 23.2499C120.613 23.2499 120.837 23.2499 120.987 23.1402C120.613 22.6467 120.24 22.2629 119.979 21.8242C119.68 22.1532 119.493 22.3725 119.493 22.6467ZM121.061 18.3696V18.2051C121.061 17.8761 120.949 17.6019 120.651 17.6019C120.352 17.6019 120.24 17.8761 120.24 18.2051V18.4793C120.24 18.7534 120.352 19.0276 120.501 19.3566C120.8 19.0824 121.024 18.7534 121.061 18.3696Z" fill="white"/>
    <path d="M134.612 25.1143H132.484C132.484 25.1143 131.551 19.6857 131.513 19.4115C131.513 19.7405 130.543 25.1143 130.543 25.1143H128.415L126.585 15.7375H128.676C128.676 15.7375 129.647 21.55 129.647 21.8242C129.647 21.55 130.58 15.7375 130.58 15.7375H132.596C132.596 15.7375 133.567 21.55 133.567 21.8242C133.567 21.55 134.537 15.7375 134.537 15.7375H136.441L134.612 25.1143Z" fill="white"/>
    <path d="M143.312 20.2888C143.312 23.5789 142.229 25.2239 139.914 25.2239C137.562 25.2239 136.517 23.5241 136.517 20.3436C136.517 17.3277 137.562 15.5182 139.914 15.5182C142.304 15.5182 143.312 17.1632 143.312 20.2888ZM141.333 20.3985C141.333 18.5341 140.997 17.7664 139.914 17.7664C138.869 17.7664 138.496 18.5341 138.496 20.3985C138.496 22.3725 138.981 23.0305 139.914 23.0305C140.81 23.0305 141.333 22.4822 141.333 20.3985Z" fill="white"/>
    <path d="M150.032 20.4533C149.845 20.9469 149.547 21.2759 149.248 21.3307L150.741 25.1143H148.539L147.419 21.9339H146.112V25.1143H144.171V15.7375H148.203C149.061 15.7375 149.621 16.0666 149.92 16.7246C150.181 17.2181 150.293 17.8212 150.293 18.6986C150.293 19.4114 150.181 20.0147 150.032 20.4533ZM148.315 18.3148C148.24 18.0406 148.053 17.9309 147.755 17.9309H146.112V19.8502H147.792C148.016 19.8502 148.24 19.7404 148.315 19.5211C148.352 19.3566 148.389 19.1373 148.389 18.918C148.389 18.6986 148.389 18.4793 148.315 18.3148Z" fill="white"/>
    <path d="M151.636 25.1143V15.7375H153.615V22.7564H156.676V25.1143H151.636Z" fill="white"/>
    <path d="M161.269 25.1143H157.685V15.7375H161.195C162.352 15.7375 163.061 16.1214 163.472 16.9439C163.845 17.7664 163.957 18.5341 163.957 20.234C163.957 22.2081 163.845 22.9757 163.509 23.7434C163.061 24.6208 162.427 25.1143 161.269 25.1143ZM162.016 20.234C162.016 19.576 161.979 18.6986 161.829 18.4244C161.568 18.0406 161.344 17.9309 160.859 17.9309H159.627V22.8661H160.859C161.344 22.8661 161.605 22.7016 161.829 22.3177C161.979 22.0436 162.016 21.0017 162.016 20.234Z" fill="white"/>
    <path d="M172.991 20.4533C172.805 20.9469 172.506 21.2759 172.207 21.3307L173.701 25.1143H171.535L170.415 21.9339H169.109V25.1143H167.205V15.7375H171.237C172.095 15.7375 172.655 16.0666 172.954 16.7246C173.215 17.2181 173.327 17.8212 173.327 18.6986C173.29 19.4114 173.178 20.0147 172.991 20.4533ZM171.311 18.3148C171.199 18.0406 171.013 17.9309 170.751 17.9309H169.109V19.8502H170.789C171.013 19.8502 171.237 19.7404 171.311 19.5211C171.349 19.3566 171.386 19.1373 171.386 18.918C171.386 18.6986 171.349 18.4793 171.311 18.3148Z" fill="white"/>
    <path d="M174.709 25.1143V15.7375H180.159V17.9309H176.65V19.3018H180.01V21.4952H176.65V22.9209H180.197V25.1143H174.709Z" fill="white"/>
    <path d="M187.14 21.221C186.767 21.8242 186.17 22.1532 185.386 22.1532C185.162 22.1532 183.407 22.1532 183.407 22.1532V25.1143H181.428V15.7375H185.348C186.132 15.7375 186.655 16.0117 187.028 16.5052C187.402 16.9987 187.588 17.7664 187.588 18.9727C187.588 19.9598 187.439 20.7275 187.14 21.221ZM185.535 18.3148C185.423 18.0406 185.236 17.8761 184.938 17.8761H183.37V20.0147H184.9C185.274 20.0147 185.46 19.8502 185.535 19.576C185.61 19.4115 185.61 19.2469 185.61 18.9727C185.647 18.6986 185.61 18.4793 185.535 18.3148Z" fill="white"/>
    <path d="M195.093 20.2888C195.093 23.5789 194.011 25.2239 191.696 25.2239C189.344 25.2239 188.299 23.5241 188.299 20.3436C188.299 17.3277 189.344 15.5182 191.696 15.5182C194.123 15.5182 195.093 17.1632 195.093 20.2888ZM193.115 20.3985C193.115 18.5341 192.779 17.7664 191.696 17.7664C190.651 17.7664 190.277 18.5341 190.277 20.3985C190.277 22.3725 190.763 23.0305 191.696 23.0305C192.592 23.0305 193.115 22.4822 193.115 20.3985Z" fill="white"/>
    <path d="M201.85 20.4533C201.664 20.9469 201.365 21.2759 201.066 21.3307L202.56 25.1143H200.357L199.237 21.9339H197.93V25.1143H195.989V15.7375H200.021C200.88 15.7375 201.44 16.0666 201.738 16.7246C202 17.2181 202.112 17.8212 202.112 18.6986C202.112 19.4114 202 20.0147 201.85 20.4533ZM200.133 18.3148C200.021 18.0406 199.834 17.9309 199.573 17.9309H197.93V19.8502H199.61C199.834 19.8502 200.058 19.7404 200.133 19.5211C200.17 19.3566 200.208 19.1373 200.208 18.918C200.208 18.6986 200.208 18.4793 200.133 18.3148Z" fill="white"/>
    <path d="M206.703 17.9858V25.1143H204.725V17.9858H202.709V15.7375H208.757V17.9858H206.703Z" fill="white"/>
    <path d="M224.848 61.4147H0.996826V64.4306H224.848V61.4147Z" fill="white"/>
    <path d="M224.922 63.937H0.922119V72.6557H224.922V63.937Z" fill="#E41319"/>
  </g>
  <defs>
    <clipPath id="clip0_160_29">
      <rect width="224" height="72.9301" fill="white" transform="translate(0.922119)"/>
    </clipPath>
  </defs>
</svg>